<?xml version="1.0" encoding="UTF-8" standalone="no"?>
<!-- Created with Inkscape (http://www.inkscape.org/) -->

<svg
   width="48"
   height="48"
   viewBox="0 0 48 48"
   version="1.1"
   id="svg1"
   inkscape:version="1.3.2 (091e20e, 2023-11-25, custom)"
   sodipodi:docname="swe.svg"
   xmlns:inkscape="http://www.inkscape.org/namespaces/inkscape"
   xmlns:sodipodi="http://sodipodi.sourceforge.net/DTD/sodipodi-0.dtd"
   xmlns:xlink="http://www.w3.org/1999/xlink"
   xmlns="http://www.w3.org/2000/svg"
   xmlns:svg="http://www.w3.org/2000/svg">
  <sodipodi:namedview
     id="namedview1"
     pagecolor="#ffffff"
     bordercolor="#000000"
     borderopacity="0.25"
     inkscape:showpageshadow="2"
     inkscape:pageopacity="0.0"
     inkscape:pagecheckerboard="0"
     inkscape:deskcolor="#d1d1d1"
     inkscape:document-units="px"
     inkscape:zoom="5.6568543"
     inkscape:cx="8.131728"
     inkscape:cy="81.405668"
     inkscape:window-width="2560"
     inkscape:window-height="1494"
     inkscape:window-x="-11"
     inkscape:window-y="-11"
     inkscape:window-maximized="1"
     inkscape:current-layer="layer1" />
  <defs
     id="defs1">
    <linearGradient
       inkscape:collect="always"
       xlink:href="#swatch50"
       id="linearGradient50"
       x1="286.86093"
       y1="475.85941"
       x2="751.14093"
       y2="475.85941"
       gradientUnits="userSpaceOnUse"
       gradientTransform="matrix(0.04710579,0,0,0.04986148,-0.11277821,-0.17346571)" />
    <linearGradient
       id="swatch50"
       inkscape:swatch="solid">
      <stop
         style="stop-color:#469622;stop-opacity:1;"
         offset="0"
         id="stop50" />
    </linearGradient>
    <linearGradient
       inkscape:collect="always"
       xlink:href="#swatch47"
       id="linearGradient48"
       x1="93.252686"
       y1="480.4975"
       x2="943.04132"
       y2="480.4975"
       gradientUnits="userSpaceOnUse"
       gradientTransform="matrix(0.04710579,0,0,0.04986148,-0.11277821,-0.17346571)" />
    <linearGradient
       id="swatch47">
      <stop
         style="stop-color:#81c43c;stop-opacity:1;"
         offset="0"
         id="stop48" />
      <stop
         style="stop-color:#459522;stop-opacity:1;"
         offset="1"
         id="stop49" />
    </linearGradient>
    <linearGradient
       inkscape:collect="always"
       xlink:href="#linearGradient8"
       id="linearGradient10"
       x1="2.3257227"
       y1="484.8866"
       x2="1021.3257"
       y2="484.8866"
       gradientUnits="userSpaceOnUse"
       gradientTransform="matrix(0.04710579,0,0,0.04986148,-0.11277821,-0.17346571)" />
    <linearGradient
       id="linearGradient8"
       inkscape:swatch="gradient">
      <stop
         style="stop-color:#000000;stop-opacity:1;"
         offset="0"
         id="stop9" />
      <stop
         style="stop-color:#000000;stop-opacity:0;"
         offset="1"
         id="stop10" />
    </linearGradient>
  </defs>
  <g
     inkscape:label="Layer 1"
     inkscape:groupmode="layer"
     id="layer1">
    <path
       style="mix-blend-mode:normal;fill:#0c2436;stroke:url(#linearGradient10);stroke-width:0.048464;stroke-opacity:1"
       d="M 0.02032807,0.02032807 V 47.987084 H 47.974026 V 0.02032807 H 0.02032807 M 23.055065,2.6214347 c 0.540175,-0.087352 1.148603,-0.0083 1.695809,-0.0083 2.136018,0 4.359081,0.4065558 6.359283,1.2299184 0.971986,0.40011 1.910509,0.8096975 2.826347,1.3213297 2.066945,1.1547024 3.903264,2.7985322 5.464271,4.6288066 1.191734,1.3973006 2.142427,3.0230486 2.928413,4.6869756 2.767654,5.859137 2.698506,13.001939 -0.06281,18.84765 -1.649757,3.492539 -4.284232,6.504916 -7.434861,8.542934 -1.575283,1.018988 -3.249473,1.816933 -5.040319,2.34349 -0.719808,0.21164 -1.469405,0.444288 -2.213973,0.531854 -1.477603,0.173786 -3.017327,0.404172 -4.522157,0.249308 C 20.997897,44.78369 18.971421,44.383662 17.025528,43.582655 15.767804,43.064932 14.599218,42.38437 13.445483,41.63806 11.993287,40.698689 10.670923,39.445552 9.535704,38.114514 8.1133967,36.446866 6.9564354,34.594377 6.0577234,32.579887 3.6213218,27.118609 3.6757282,20.323947 6.1048302,14.879055 7.4951669,11.762578 9.5927033,9.0426482 12.173629,6.9178391 14.391952,5.0915406 17.061577,3.7736284 19.804765,3.1283653 20.887063,2.8737842 21.970257,2.7968689 23.055065,2.6214411 M 14.434707,21.959394 11.796781,20.804267 10.901769,20.305651 10.383604,20.014794 c -0.268259,0.899178 -0.5181599,1.738185 -0.5181599,2.692521 0,0.879907 0.075488,1.693737 0.2983359,2.542936 0.483019,1.840602 1.721849,3.070693 3.140384,4.155127 1.978727,1.512681 4.236419,2.507505 6.265072,3.939056 1.051444,0.741971 2.072753,1.529189 2.967664,2.476454 0.287804,0.304637 0.577069,0.612119 0.832201,0.947368 0.131916,0.173335 0.232817,0.385378 0.439657,0.448754 v -5.385044 -2.04432 c 0,-0.286892 0.06372,-0.672243 -0.0157,-0.947368 -0.168154,-0.582513 -0.556904,-1.19976 -0.895011,-1.695291 -0.92883,-1.361312 -2.253477,-2.389329 -3.658551,-3.132966 -0.540154,-0.285877 -1.084103,-0.557071 -1.648703,-0.797781 -0.164511,-0.07013 -0.496465,-0.133693 -0.588821,-0.30748 -0.07318,-0.137724 0.01069,-0.308752 0.02355,-0.448753 0.01945,-0.21156 0,-0.435459 0,-0.6482 0.530964,0.04437 1.171592,0.451265 1.648704,0.689751 1.625227,0.812363 3.089465,1.732803 4.380839,3.099723 0.324366,0.343343 0.60246,0.748762 0.863607,1.146814 0.142048,0.216513 0.246123,0.508986 0.455356,0.648201 0.434908,-0.920699 1.123106,-1.711045 1.837126,-2.393353 2.506513,-2.395204 5.792771,-3.248092 8.855888,-4.554013 0.838152,-0.357337 1.695624,-0.731174 2.4495,-1.263161 0.315586,-0.222699 0.722114,-0.645506 1.130539,-0.465371 0.471261,0.207842 0.690477,1.01561 0.816503,1.495842 0.419738,1.59947 0.547706,3.150143 0.204122,4.786703 -0.552131,2.629946 -2.348457,4.484959 -4.459347,5.850416 -2.454129,1.587478 -5.194912,2.863901 -7.39561,4.869804 -0.880022,0.802127 -1.643156,1.644979 -2.323884,2.64266 -0.200686,0.294127 -0.471724,0.650291 -0.580974,0.997228 -0.121942,0.387237 -0.0157,0.987746 -0.0157,1.396123 v 3.091405 c 7.138377,0 13.719493,-5.003623 16.714705,-11.717452 1.776192,-3.98137 2.111522,-8.602986 1.216899,-12.864266 -0.630881,-3.00498 -1.963727,-5.785222 -3.784173,-8.177284 C 38.584126,10.491046 38.103943,9.8607285 37.563648,9.3444266 35.820886,7.6790638 33.968852,6.3661399 31.863846,5.3139572 29.669401,4.2170653 27.234862,3.815477 24.845083,3.7100785 22.840081,3.6216494 20.735832,3.8635596 18.815542,4.5411022 17.646476,4.9535889 16.506318,5.4073369 15.423926,6.0120178 13.833738,6.9003782 12.421396,8.072341 11.090193,9.3444266 10.183427,10.21092 9.4311647,11.292651 8.719202,12.336118 4.3188227,18.785379 4.3009922,27.930718 8.3109521,34.57434 c 2.5986609,4.30542 6.6073789,7.289012 11.2111779,8.642658 1.023437,0.300924 2.188198,0.581718 3.250297,0.581718 0.252227,0 0.497683,0.04987 0.753694,0.04987 0.08206,0 0.203392,0.0237 0.259083,-0.05818 0.07068,-0.103895 0.02356,-0.367014 0.02356,-0.490303 V 42.003704 40.20869 c 0,-0.238926 0.05603,-0.569987 -0.0157,-0.797783 -0.0858,-0.27244 -0.305167,-0.559324 -0.455355,-0.797784 -0.43319,-0.687796 -0.926807,-1.280525 -1.444579,-1.894735 -0.877415,-1.040834 -2.052593,-1.88545 -3.171794,-2.609419 C 17.0079,33.000608 15.253554,32.009837 13.539705,30.901216 11.437874,29.541622 9.646862,27.748562 9.0332481,25.150524 8.6492352,23.524611 8.7046242,21.806265 9.2059731,20.214236 c 0.1589081,-0.504628 0.3509963,-1.35314 0.8950079,-1.52909 0.376561,-0.121788 0.748486,0.278879 1.036327,0.481998 0.699883,0.493885 1.483716,0.85694 2.26108,1.188365 0.218537,0.09317 0.436819,0.192403 0.659476,0.274239 0.12265,0.04507 0.282972,0.06991 0.368996,0.182826 0.160035,0.210049 0.07423,0.904085 0.0079,1.146814 m 5.417168,-7.27978 c 0.07737,-0.207452 0.234035,-0.329993 0.368995,-0.498613 0.36804,-0.459819 0.789436,-0.885281 1.232604,-1.263155 0.686812,-0.585637 1.359065,-1.164549 2.119759,-1.645432 0.199947,-0.126398 0.515327,-0.425125 0.753693,-0.432134 0.138147,-0.004 0.2655,0.112439 0.376845,0.182827 0.253506,0.160254 0.507053,0.307946 0.753693,0.481992 0.910512,0.64252 1.769731,1.358026 2.543714,2.177287 0.22502,0.238189 0.67255,0.569667 0.777245,0.897508 0.02354,0.07369 -0.0125,0.140966 -0.07065,0.182823 -0.160214,0.115322 -0.350722,0.179159 -0.518165,0.282548 -0.07905,0.04881 -0.185311,0.157896 -0.282635,0.157896 -0.100287,0 -0.171598,-0.107785 -0.235528,-0.174516 L 27.153323,14.48016 c -0.632284,-0.669267 -1.301629,-1.258214 -2.02555,-1.81163 -0.179657,-0.137341 -0.614149,-0.575657 -0.847904,-0.506926 -0.2498,0.07345 -0.497408,0.336545 -0.706587,0.490303 -0.644034,0.47341 -1.282024,0.991374 -1.837124,1.578951 -0.21885,0.231646 -0.45213,0.454937 -0.659483,0.698058 -0.08028,0.09413 -0.150082,0.268716 -0.282635,0.282548 -0.08839,0.0093 -0.164455,-0.07141 -0.235529,-0.116344 C 20.32561,14.94789 20.0775,14.830411 19.851924,14.679608 m 4.427945,5.135736 h 0.09421 c 0.11614,-0.311438 0.35897,-0.586885 0.557418,-0.847647 0.325037,-0.427096 0.661564,-0.831052 1.04418,-1.196677 1.779087,-1.700076 3.895152,-3.085099 6.312175,-3.440442 0.681149,-0.100141 1.332445,-0.199446 2.025551,-0.199446 0.255701,0 0.585467,-0.06173 0.8008,0.116345 0.371197,0.306964 0.121334,0.803827 -0.06282,1.130194 -0.531683,0.942341 -0.961069,1.927059 -1.240455,2.991691 -0.103778,0.395467 -0.213623,0.837099 -0.251229,1.246535 -0.01397,0.152182 0.0075,0.406926 -0.07065,0.540166 -0.05949,0.101438 -0.206279,0.137793 -0.306189,0.174515 -0.251755,0.09252 -0.499366,0.197537 -0.753692,0.282551 l -0.0471,-0.04986 0.09421,-0.897508 0.298337,-1.545706 0.745844,-2.144045 0.368993,-0.747922 c -0.709284,0 -1.38416,0.170463 -2.072654,0.332412 -2.08423,0.49026 -4.079342,1.778002 -5.511377,3.45706 -0.78728,0.92308 -1.314833,1.958454 -1.931339,2.99169 h -0.09421 c -0.115584,-0.332071 -0.329799,-0.641337 -0.502466,-0.947368 -0.348468,-0.617613 -0.742136,-1.207844 -1.193347,-1.745151 -1.926966,-2.294653 -4.797405,-4.088643 -7.772456,-4.088643 0.114289,0.459727 0.426565,0.899232 0.59667,1.346259 0.394991,1.038039 0.71434,2.17861 0.816502,3.290862 0.07456,0.811807 0.122285,1.724407 0.0471,2.542932 -0.04594,0.500233 -0.09368,1.03856 -0.0471,1.545707 0.124165,1.351865 0.524868,2.681473 1.193344,3.839336 0.804333,1.39317 2.027358,2.584928 3.423027,3.28255 0.447058,0.223458 0.93162,0.412732 1.413169,0.540163 0.195637,0.05177 0.587589,0.06047 0.745847,0.191137 0.08442,0.06969 0.05495,0.224737 0.05495,0.324099 v 0.847646 C 22.22124,32.9091 21.358848,32.615679 20.6056,32.239168 19.723635,31.798326 18.890785,31.287491 18.156096,30.585432 16.659718,29.155505 15.68018,27.229111 15.298346,25.15053 c -0.34981,-1.904249 0.13015,-3.828896 -0.219831,-5.734071 -0.228437,-1.243555 -0.614531,-2.426549 -1.169791,-3.540169 -0.21114,-0.423455 -0.767375,-0.995022 -0.447504,-1.495841 0.199298,-0.312043 0.521768,-0.24931 0.832201,-0.24931 0.71078,0 1.374333,0.09679 2.072657,0.199445 2.363265,0.347441 4.474859,1.675032 6.217966,3.340722 0.475987,0.45485 0.896694,0.954232 1.287559,1.495845 0.143676,0.199085 0.342715,0.408561 0.40825,0.648199 m 0.612375,17.401661 c 0.237282,-0.14541 0.381523,-0.43276 0.565269,-0.648202 0.275465,-0.322979 0.55455,-0.641166 0.847905,-0.947368 0.760332,-0.793638 1.656261,-1.467937 2.543715,-2.094181 1.706461,-1.204193 3.523668,-2.166581 5.275847,-3.274238 1.275184,-0.806117 2.58782,-1.715193 3.470129,-3.008308 0.599475,-0.878597 0.908418,-1.893066 1.114833,-2.941831 0.119393,-0.606606 0.13481,-1.231956 0.0785,-1.844874 -0.07651,-0.832924 -0.156832,-1.678264 -0.518165,-2.443215 -0.348847,0.136043 -0.655186,0.413237 -0.989219,0.590028 -0.762778,0.4037 -1.55399,0.758795 -2.355289,1.088643 -3.636274,1.496838 -8.349954,2.687946 -9.97073,6.947368 -0.105457,0.277134 -0.0628,0.604077 -0.0628,0.897508 v 1.69529 5.98338 m 8.620359,-14.060943 c 0,3.527449 -1.685968,7.027742 -4.710579,8.717454 -0.715835,0.399903 -1.467475,0.712429 -2.261079,0.922439 -0.248461,0.06574 -0.544048,0.174513 -0.800798,0.174513 -0.237267,0 -0.141318,-0.658509 -0.141318,-0.839337 0,-0.08175 -0.02462,-0.220054 0.02356,-0.290861 0.09054,-0.133108 0.48937,-0.135731 0.635927,-0.174513 0.497216,-0.131575 0.997198,-0.308696 1.460281,-0.540164 1.347924,-0.673757 2.454418,-1.701858 3.32881,-2.983381 0.583273,-0.854851 1.008323,-1.910939 1.22475,-2.941827 0.08696,-0.414227 0.112865,-0.835212 0.188423,-1.246539 0.02147,-0.116873 -0.0291,-0.335656 0.03925,-0.432131 0.05011,-0.07073 0.18488,-0.09016 0.259082,-0.116345 0.245761,-0.08671 0.495837,-0.227758 0.753693,-0.249308 z"
       id="path1" />
    <path
       style="fill:url(#linearGradient48);fill-opacity:1;fill-rule:nonzero;stroke:#000000;stroke-width:0.0541829;stroke-dasharray:none;stroke-opacity:1"
       d="m 22.978257,44.940314 c -3.560816,-0.468597 -5.550323,-1.060533 -7.793552,-2.31882 -2.70684,-1.518338 -4.5491,-3.109417 -6.3650364,-5.497216 C 4.9721439,32.065127 3.522788,25.880245 4.7098365,19.586265 5.3248415,16.325373 6.634291,13.378421 8.6850095,10.64004 9.3952821,9.6915911 11.044197,7.9457632 11.946167,7.1872168 13.940188,5.5102636 16.220805,4.2541211 18.618773,3.5120009 19.632322,3.1983318 20.415506,3.0403833 22.083052,2.8133536 l 1.448126,-0.1971567 1.369138,0.052864 c 2.655401,0.1025281 4.309622,0.4483755 6.48727,1.3562937 2.667223,1.1120355 4.293795,2.1459661 6.203585,3.9433084 1.37183,1.291062 2.461937,2.612053 3.360713,4.072533 1.789481,2.907842 2.801722,5.786 3.23189,9.18939 0.118547,0.937934 0.135287,3.974365 0.02704,4.905096 -0.308735,2.654571 -0.953485,4.959009 -2.014186,7.19899 -0.952512,2.011513 -2.093444,3.665222 -3.707275,5.373465 -1.665692,1.763134 -3.343037,3.040407 -5.374211,4.092369 -2.766106,1.432601 -5.50759,2.108475 -8.715086,2.148585 -0.680622,0.0085 -1.320428,0.0045 -1.421798,-0.0087 z m 0.793349,-1.081365 c 0.09802,-0.05554 0.101856,-0.139373 0.101856,-2.231439 v -2.173743 l -0.126222,-0.26291 c -0.336637,-0.701179 -1.75597,-2.539891 -2.486291,-3.220925 -1.047628,-0.976929 -1.833638,-1.517486 -5.18104,-3.563125 -1.144023,-0.699124 -2.328515,-1.436176 -2.632215,-1.637894 -2.236959,-1.485808 -3.6443508,-3.205968 -4.230809,-5.171036 -0.5332066,-1.786643 -0.5026493,-3.65564 0.090228,-5.518463 0.2277241,-0.715512 0.3522041,-0.965738 0.5906881,-1.187381 0.2852299,-0.265087 0.4660399,-0.222398 1.1612159,0.274156 0.625726,0.446951 1.365996,0.836506 2.493257,1.312036 0.419955,0.177157 0.793178,0.346733 0.829381,0.37684 0.07688,0.06391 0.09049,0.805367 0.01703,0.928167 -0.03837,0.06414 -0.281278,-0.02375 -1.302508,-0.471299 -0.690442,-0.302586 -1.584084,-0.734231 -1.985872,-0.959212 -0.40179,-0.224978 -0.742182,-0.396715 -0.756428,-0.381634 -0.01425,0.01506 -0.106788,0.321793 -0.205647,0.681585 -0.2777569,1.010906 -0.3508661,1.588877 -0.3163463,2.500934 0.1027196,2.713764 0.9450743,4.319247 3.2023233,6.103464 0.858075,0.678256 1.638555,1.184578 3.651261,2.368692 1.972206,1.160289 2.649532,1.598221 3.702467,2.393878 0.982916,0.742748 1.876513,1.555132 2.468459,2.244114 0.705224,0.820837 0.892266,1.019871 0.958422,1.019871 0.04523,0 0.05697,-1.075933 0.04643,-4.250153 l -0.01412,-4.250154 -0.195138,-0.432562 c -0.647849,-1.436106 -1.787353,-2.718409 -3.348126,-3.7677 -0.527157,-0.354407 -2.057898,-1.158028 -2.733983,-1.435313 -0.269565,-0.110562 -0.500928,-0.219524 -0.514135,-0.242146 -0.0132,-0.02262 -0.0094,-0.260898 0.0086,-0.529511 l 0.03257,-0.488387 0.183002,0.03143 c 0.100646,0.01729 0.588656,0.236113 1.084461,0.486278 2.924371,1.475526 4.565245,2.807591 5.624979,4.566366 0.101596,0.168612 0.23213,0.35105 0.290075,0.405413 0.102994,0.09663 0.109689,0.09101 0.298585,-0.250827 0.324861,-0.587887 0.678938,-1.045372 1.330844,-1.719526 0.967578,-1.000595 1.894112,-1.683641 3.28338,-2.420528 0.927943,-0.492196 1.615412,-0.790532 3.896629,-1.690992 2.87231,-1.133781 3.532741,-1.445292 4.553269,-2.147678 0.484333,-0.333344 0.613338,-0.397469 0.799596,-0.397469 0.424673,0 0.7357,0.506749 1.012542,1.649707 0.269368,1.112098 0.340639,1.670751 0.340639,2.670119 0,1.075517 -0.09379,1.743764 -0.367734,2.619767 -0.369893,1.182866 -0.958471,2.160368 -1.914947,3.180309 -1.050626,1.120345 -1.749006,1.621678 -4.634004,3.326523 -3.549478,2.097511 -4.635126,2.901658 -6.16211,4.564315 -0.707874,0.770767 -1.571281,1.935797 -1.770906,2.389557 -0.122214,0.277795 -0.122806,0.289933 -0.123317,2.527551 l -4.66e-4,2.248412 0.645072,-0.03694 c 1.943211,-0.111258 3.538961,-0.448923 5.281917,-1.117685 5.394866,-2.070001 9.957465,-7.055913 11.7041,-12.79009 1.322656,-4.342266 1.160771,-9.414957 -0.434738,-13.622568 C 40.878835,13.355664 38.941051,10.458681 36.827593,8.5998652 34.69619,6.725279 32.011535,5.123091 29.930205,4.4835459 28.09859,3.9207341 26.264674,3.6650338 24.057746,3.6647548 21.843198,3.6644225 20.205191,3.9555223 18.21258,4.703332 15.553411,5.7012957 13.88327,6.7290084 11.672049,8.7280094 10.558568,9.7346224 9.6957578,10.767663 8.6318997,12.36797 c -1.8504879,2.783606 -2.9283998,5.926699 -3.2401151,9.447884 -0.069775,0.788196 -0.069707,2.935496 9.33e-5,3.762429 0.645914,7.649242 5.1962611,14.068171 12.0044581,16.934041 1.835553,0.772666 3.679856,1.244924 5.252749,1.345038 1.002459,0.0638 1.012617,0.06381 1.12247,0.0016 z M 25.27178,36.91029 c 0.931534,-1.220215 1.923073,-2.137482 3.551641,-3.285605 0.945507,-0.666573 1.502219,-1.019729 3.372097,-2.139133 3.152442,-1.887216 4.129282,-2.600932 5.03121,-3.675988 0.88644,-1.056596 1.500819,-2.666662 1.627825,-4.265942 0.09583,-1.206758 -0.337873,-3.608413 -0.640722,-3.548023 -0.05284,0.01055 -0.290019,0.142918 -0.527072,0.29418 -0.820739,0.523712 -2.014922,1.063901 -4.365311,1.974656 -2.129693,0.825238 -2.615743,1.035257 -3.734467,1.613632 -2.321488,1.200196 -3.684555,2.514522 -4.515509,4.354044 l -0.223816,0.495469 -0.01445,4.206373 c -0.008,2.313506 -0.0024,4.239697 0.01238,4.280425 0.04068,0.11221 0.189399,0.0061 0.426203,-0.304088 z"
       id="path30" />
    <path
       style="fill:url(#linearGradient50);fill-opacity:1;fill-rule:nonzero;stroke:#000000;stroke-width:0.0605702;stroke-dasharray:none;stroke-opacity:1"
       d="m 22.793952,32.897483 c -0.363497,-0.05002 -1.270966,-0.315868 -1.699053,-0.497742 -0.615597,-0.261539 -1.434399,-0.723459 -1.998979,-1.127702 -1.852913,-1.326696 -3.141252,-3.376998 -3.709793,-5.903877 -0.09905,-0.440257 -0.113169,-0.733583 -0.14811,-3.078519 -0.03541,-2.376419 -0.04825,-2.638016 -0.154543,-3.146628 -0.263535,-1.261122 -0.862261,-2.886584 -1.364133,-3.703432 -0.282816,-0.460316 -0.343506,-0.687366 -0.248245,-0.928699 0.111491,-0.282444 0.23744,-0.323775 0.950047,-0.311778 1.18242,0.01991 2.545327,0.249595 3.554496,0.599034 2.100234,0.727239 4.319511,2.374854 5.738698,4.26047 0.2384,0.316753 0.458474,0.634037 0.489052,0.705069 0.08179,0.190003 0.170239,0.158809 0.320799,-0.11313 0.367375,-0.663552 1.498527,-1.909209 2.418002,-2.662778 1.498749,-1.228326 2.89535,-1.993254 4.369926,-2.39345 0.988767,-0.268351 3.176269,-0.50175 3.584454,-0.382452 0.407655,0.119144 0.452272,0.460884 0.138911,1.063941 -0.483147,0.929816 -0.905918,1.897626 -1.103779,2.526784 -0.249145,0.79222 -0.418894,1.571693 -0.420477,1.930781 -0.0015,0.353962 -0.103624,0.460498 -0.626681,0.654115 l -0.441233,0.16333 0.03629,-0.426538 c 0.07269,-0.854501 0.339049,-1.977997 0.739255,-3.11814 0.212111,-0.604285 0.45877,-1.236653 0.548129,-1.405266 0.233963,-0.441462 0.227758,-0.454963 -0.191069,-0.415709 -0.520098,0.04875 -1.428731,0.229716 -2.112939,0.420825 -1.799197,0.502549 -3.459929,1.526198 -4.826113,2.974738 -0.630023,0.667999 -1.048024,1.252935 -1.766832,2.472444 l -0.536086,0.909511 -0.183449,-0.35035 c -0.291654,-0.556998 -0.91496,-1.543404 -1.262659,-1.9982 -0.432539,-0.565772 -1.407545,-1.561799 -2.008009,-2.0513 -1.310537,-1.068353 -2.992925,-1.911113 -4.404971,-2.206576 -0.348023,-0.07282 -1.396737,-0.201078 -1.6456,-0.201256 -0.114035,-5e-5 -0.07493,0.125646 0.278292,0.894884 0.377295,0.821644 0.757196,1.993924 0.917542,2.831285 0.185219,0.967256 0.229005,1.717269 0.185967,3.185509 -0.04868,1.660741 -0.04229,1.957397 0.05511,2.564029 0.146753,0.913914 0.400059,1.735795 0.791045,2.566659 0.767813,1.631616 2.178573,3.113676 3.709369,3.896825 0.496293,0.253902 1.46997,0.591852 1.855606,0.644056 0.369723,0.05005 0.408739,0.116865 0.408739,0.700001 0,0.273721 -0.01777,0.493918 -0.03949,0.489323 -0.02173,-0.0046 -0.110586,-0.01814 -0.197471,-0.03008 z"
       id="path50" />
    <path
       style="fill:#59a52b;fill-opacity:1;fill-rule:nonzero;stroke:#000000;stroke-width:0.0605702;stroke-dasharray:none;stroke-opacity:1"
       d="m 20.381451,14.935337 c -0.197338,-0.116094 -0.381937,-0.235579 -0.410228,-0.265521 -0.06424,-0.06799 0.585446,-0.839628 1.153743,-1.370296 1.062751,-0.992378 2.916619,-2.380783 3.178941,-2.380783 0.262771,0 1.67548,0.977223 2.616725,1.810078 0.622722,0.551017 1.593309,1.515356 1.704972,1.694 0.05049,0.08079 0.09196,0.177913 0.09215,0.21585 2.93e-4,0.05327 -0.440421,0.331432 -0.802261,0.506388 -0.02149,0.01033 -0.389878,-0.340568 -0.818664,-0.779899 -0.778374,-0.797511 -2.19776,-2.018065 -2.558666,-2.200235 -0.179258,-0.09048 -0.201978,-0.09063 -0.376467,-0.0025 -0.448456,0.226362 -1.86385,1.419803 -2.602726,2.194575 -0.418574,0.438913 -0.774024,0.796101 -0.789888,0.793754 -0.01587,-0.0023 -0.190298,-0.09925 -0.387632,-0.21535 z"
       id="path51" />
    <path
       style="fill:#59a52b;fill-opacity:1;fill-rule:nonzero;stroke:#000000;stroke-width:0.0605702;stroke-dasharray:none;stroke-opacity:1"
       d="m 25.660304,32.786647 c -0.07841,-0.218289 -0.0053,-0.90123 0.102709,-0.960388 0.04684,-0.02563 0.203646,-0.06416 0.34846,-0.08561 0.392958,-0.0582 1.269882,-0.381284 1.800494,-0.663364 1.452902,-0.772376 2.906196,-2.245521 3.623701,-3.673198 0.507456,-1.009724 0.805574,-2.024063 0.921588,-3.135683 0.0352,-0.337226 0.07098,-0.640403 0.07953,-0.673726 0.01467,-0.0572 0.739677,-0.35746 0.863101,-0.35746 0.07311,0 0.07356,0.351611 0.0013,1.047317 -0.171096,1.648438 -0.71405,3.232797 -1.58135,4.61447 -0.499382,0.795551 -1.547157,1.916963 -2.257027,2.415646 -0.928374,0.652186 -1.975255,1.137419 -3.139481,1.45516 -0.334761,0.09137 -0.631337,0.166117 -0.659061,0.166117 -0.02773,0 -0.07453,-0.06717 -0.104029,-0.149279 z"
       id="path52" />
    <path
       style="fill:#59a52b;fill-opacity:1;fill-rule:nonzero;stroke:#000000;stroke-width:0.00189282;stroke-dasharray:none;stroke-opacity:1"
       d="m 18.675756,22.532461 c -0.06964,-0.03632 -0.249707,-0.128122 -0.343847,-0.175299 -0.460795,-0.230903 -0.910895,-0.432969 -1.029264,-0.462072 -0.01603,-0.0039 -0.229771,-0.04142 -0.230569,-0.04043 -1.87e-4,1.64e-4 -0.0034,0.04742 -0.0071,0.104898 -0.0037,0.05748 -0.0073,0.108429 -0.0081,0.113219 -0.0012,0.008 -0.0031,-0.04743 -0.0064,-0.190297 -9.69e-4,-0.04274 -9.69e-4,-0.04398 0.0021,-0.04398 0.0017,0 0.01241,0.0012 0.02371,0.0026 0.192071,0.02474 0.41271,0.09491 0.680405,0.216394 0.133975,0.0608 0.259267,0.123431 0.454188,0.22704 0.06246,0.03319 0.171679,0.09125 0.242724,0.129023 0.07105,0.03776 0.157134,0.08273 0.191302,0.09991 0.05454,0.02743 0.06618,0.03393 0.0608,0.03393 -5.99e-4,0 -0.01424,-0.0067 -0.03004,-0.01499 z"
       id="path53" />
    <path
       style="fill:#59a52b;fill-opacity:1;fill-rule:nonzero;stroke:#000000;stroke-width:0.00189282;stroke-dasharray:none;stroke-opacity:1"
       d="m 17.018201,22.883057 c -0.007,-0.01525 -0.013,-0.03373 -0.01676,-0.05169 -0.0043,-0.02046 -0.0051,-0.0738 -0.0017,-0.10282 0.0031,-0.02597 0.01315,-0.0805 0.02066,-0.11143 l 0.0049,-0.02004 -5.99e-4,0.01567 c -0.0041,0.08671 -0.0046,0.227031 -7.85e-4,0.26643 7.85e-4,0.0085 0.0012,0.01584 9.69e-4,0.01615 -1.94e-4,3.32e-4 -0.0032,-0.0052 -0.0064,-0.01228 z"
       id="path54" />
    <path
       style="fill:#59a52b;fill-opacity:1;fill-rule:nonzero;stroke:#000000;stroke-width:0.00189282;stroke-dasharray:none;stroke-opacity:1"
       d="m 16.225713,22.637145 c -1.89e-4,-0.0063 0.0062,-0.244032 0.01298,-0.479885 0.01195,-0.417722 0.01562,-0.606632 0.01747,-0.89619 0.0017,-0.294764 -0.0045,-0.633136 -0.0159,-0.853295 -0.0015,-0.02976 -0.0013,-0.03632 7.84e-4,-0.03401 0.0015,0.0017 0.01409,0.196343 0.02146,0.334256 0.01559,0.291664 0.02224,0.530367 0.02223,0.800387 -1.5e-5,0.30581 -0.0084,0.53644 -0.02887,0.797775 -0.0053,0.06783 -0.02995,0.338 -0.03017,0.330956 z"
       id="path55" />
    <path
       style="fill:#59a52b;fill-opacity:1;fill-rule:nonzero;stroke:#000000;stroke-width:0.000669216;stroke-dasharray:none;stroke-opacity:1"
       d="m 15.192277,23.831313 c -5.99e-4,-0.0135 -0.0028,-0.107227 -0.0038,-0.168279 -0.0024,-0.144676 -0.0024,-0.338801 0,-0.504683 0.0015,-0.112794 0.0046,-0.250361 0.0082,-0.380591 0.0021,-0.07341 0.004,-0.14043 0.0044,-0.148878 l 1.95e-4,-0.0081 h 0.006 0.0059 l 1.94e-4,0.02479 c 1.94e-4,0.01362 0.0012,0.07425 0.0021,0.134713 0.0052,0.333007 0.01025,0.616016 0.01482,0.84001 0.0021,0.09667 0.0043,0.202709 0.0046,0.211079 l 1.94e-4,0.007 h -0.0214 -0.02138 z"
       id="path56" />
    <path
       style="fill:#59a52b;fill-opacity:1;fill-rule:nonzero;stroke:#000000;stroke-width:0.000946408;stroke-dasharray:none;stroke-opacity:1"
       d="m 15.271174,24.829499 c -1.94e-4,-0.0013 -0.0025,-0.01788 -0.005,-0.0368 -0.03521,-0.267385 -0.05769,-0.538054 -0.06953,-0.836529 -0.0013,-0.03689 -0.0041,-0.111474 -0.0041,-0.115616 -2e-6,-0.0014 0.0015,-0.0015 0.02139,-0.0015 h 0.0214 v 0.0024 c 9e-6,0.0096 0.0051,0.205189 0.0074,0.284142 0.0086,0.295879 0.01939,0.529221 0.03128,0.680201 0.0021,0.02668 0.0021,0.02613 -1.94e-4,0.02613 -0.0013,0 -0.0021,-6.34e-4 -0.0024,-0.0024 z"
       id="path57" />
    <path
       style="fill:#59a52b;fill-opacity:1;fill-rule:nonzero;stroke:#000000;stroke-width:0.000946408;stroke-dasharray:none;stroke-opacity:1"
       d="m 14.389468,21.912112 c -0.0156,-0.0069 -0.197225,-0.08641 -0.403584,-0.176787 -0.206357,-0.09037 -0.375502,-0.164625 -0.375878,-0.165016 -3.89e-4,-5.01e-4 -3.89e-4,-0.0017 -3.89e-4,-0.003 1.95e-4,-0.0022 3.89e-4,-0.0021 0.03606,0.01298 0.378916,0.160754 0.568092,0.230429 0.67017,0.24683 0.01484,0.0024 0.04401,0.0034 0.05493,0.0018 0.01831,-0.0026 0.03231,-0.0093 0.04268,-0.02026 0.03241,-0.03431 0.05349,-0.1618 0.05915,-0.357747 9.7e-4,-0.03864 9.7e-4,-0.14312 -1.1e-5,-0.182459 -0.0026,-0.0926 -0.0076,-0.166909 -0.01612,-0.239505 -9.69e-4,-0.0096 -0.0022,-0.01832 -0.0024,-0.01941 l -3.88e-4,-0.002 0.01047,3.34e-4 0.01047,3.32e-4 9.69e-4,0.0057 c 0.0092,0.0523 0.01518,0.117697 0.01762,0.192913 9.68e-4,0.03284 3.88e-4,0.119079 -9.7e-4,0.152847 -0.0064,0.15064 -0.02291,0.302201 -0.04812,0.443069 -0.0085,0.04739 -0.02434,0.122284 -0.02585,0.122105 -1.96e-4,-3.5e-5 -0.01328,-0.0057 -0.0289,-0.01254 z"
       id="path58" />
    <path
       style="fill:#59a52b;fill-opacity:1;fill-rule:nonzero;stroke:#000000;stroke-width:0.000669216;stroke-dasharray:none;stroke-opacity:1"
       d="m 14.456104,21.00676 c -0.0021,-1.63e-4 -0.0025,-5.04e-4 -0.0027,-0.0017 -1.87e-4,-6.87e-4 -9.69e-4,-0.0071 -0.0021,-0.01397 -0.0097,-0.06786 -0.02314,-0.116486 -0.03903,-0.141649 -0.0086,-0.01367 -0.016,-0.01969 -0.04194,-0.03426 -0.05858,-0.0329 -0.247888,-0.120713 -0.465778,-0.216074 -0.01223,-0.0054 -0.02216,-0.0098 -0.02201,-0.01001 1.88e-4,-1.64e-4 0.0096,0.0035 0.0211,0.008 0.0594,0.02377 0.124741,0.04873 0.159893,0.0611 0.01806,0.0063 0.03275,0.0111 0.07709,0.02489 0.05206,0.0162 0.07824,0.025 0.103559,0.03482 0.06453,0.025 0.109759,0.05239 0.143847,0.08709 0.01939,0.01973 0.03281,0.03914 0.04582,0.06625 0.01553,0.03233 0.02804,0.07227 0.03778,0.120545 0.0015,0.008 0.0029,0.01478 0.0029,0.01494 0,3.32e-4 -0.01451,3.32e-4 -0.01846,-1.67e-4 z"
       id="path59" />
    <path
       style="fill:#59a52b;fill-opacity:1;fill-rule:nonzero;stroke:#000000;stroke-width:0.000334608;stroke-dasharray:none;stroke-opacity:1"
       d="m 13.194968,21.389393 -0.351329,-0.153854 -8e-6,-0.0027 c -6e-6,-0.0021 9e-5,-0.0026 1.94e-4,-0.0025 1.88e-4,7.2e-5 0.0097,0.0043 0.02103,0.0095 0.06104,0.02746 0.142726,0.06376 0.204941,0.09107 0.154504,0.06782 0.362697,0.15828 0.462901,0.201126 l 0.01388,0.0059 v 0.0027 c 0,0.0015 -8.8e-5,0.0027 -1.95e-4,0.0027 -1.88e-4,-1.6e-5 -0.158316,-0.06925 -0.351551,-0.153882 z"
       id="path60" />
    <path
       style="fill:#59a52b;fill-opacity:1;fill-rule:nonzero;stroke:#000000;stroke-width:0.000946408;stroke-dasharray:none;stroke-opacity:1"
       d="M 12.325066,21.008056 11.807113,20.78124 11.348812,20.525946 c -0.252062,-0.140412 -0.459872,-0.256251 -0.461796,-0.257422 -0.0032,-0.0019 -0.0035,-0.0024 -0.0035,-0.0055 v -0.0034 l 0.03517,0.01916 c 0.03923,0.02137 0.103212,0.0567 0.175051,0.09665 0.0626,0.03482 0.104914,0.05776 0.171552,0.09301 0.373329,0.197539 0.961889,0.482525 1.504899,0.728683 0.03959,0.01795 0.0723,0.03296 0.07268,0.03334 1.94e-4,5.03e-4 3.88e-4,0.0015 3.88e-4,0.0025 -1.94e-4,0.0017 -0.04769,-0.01895 -0.518224,-0.225006 z"
       id="path61" />
    <path
       style="fill:#59a52b;fill-opacity:1;fill-rule:nonzero;stroke:#000000;stroke-width:0.000669216;stroke-dasharray:none;stroke-opacity:1"
       d="m 9.487278,19.437275 c 0.0012,-0.0032 0.015623,-0.03725 0.023479,-0.05528 0.022158,-0.0509 0.047875,-0.105122 0.070371,-0.14842 0.099151,-0.190716 0.2073353,-0.328711 0.3299397,-0.42084 0.08115,-0.06097 0.1749503,-0.104023 0.2584253,-0.118584 0.03723,-0.0065 0.08242,-0.008 0.122469,-0.004 0.115249,0.01141 0.237009,0.06192 0.385005,0.159694 l 0.01644,0.01084 3e-6,0.01242 2e-6,0.01243 -0.01469,-0.009 c -0.123422,-0.07514 -0.225695,-0.124745 -0.309375,-0.150063 -0.12483,-0.03777 -0.225716,-0.03063 -0.327233,0.02314 -0.043264,0.02293 -0.087936,0.05517 -0.1387929,0.100193 -0.048147,0.04263 -0.09708,0.09248 -0.1366862,0.139229 -0.096337,0.113729 -0.1736981,0.245928 -0.2548689,0.435561 l -0.006,0.01401 h -0.00949 -0.00949 z"
       id="path62" />
    <path
       style="fill:#59a52b;fill-opacity:1;fill-rule:nonzero;stroke:#000000;stroke-width:0.000669216;stroke-dasharray:none;stroke-opacity:1"
       d="m 17.553788,23.172777 c -0.01713,-0.0064 -0.04843,-0.0172 -0.106177,-0.03651 -0.08388,-0.02806 -0.118111,-0.04018 -0.160687,-0.05695 -0.09344,-0.03679 -0.16259,-0.07549 -0.208665,-0.116758 -0.0085,-0.0076 -0.01831,-0.01732 -0.01789,-0.01774 8.9e-5,-1.65e-4 0.0027,0.0014 0.0057,0.0031 0.06229,0.0385 0.258665,0.128828 0.468833,0.215665 0.01776,0.0074 0.03241,0.01346 0.03254,0.01359 7.84e-4,6.64e-4 -0.0027,-3.33e-4 -0.01363,-0.0044 z"
       id="path63" />
    <path
       style="fill:#59a52b;fill-opacity:1;fill-rule:nonzero;stroke:#000000;stroke-width:0.000946408;stroke-dasharray:none;stroke-opacity:1"
       d="m 20.243685,23.409508 c -0.0235,-0.01445 -0.112558,-0.06835 -0.149751,-0.09061 -0.399688,-0.23934 -0.835809,-0.482311 -1.308039,-0.728731 -0.04355,-0.02273 -0.07878,-0.0416 -0.07825,-0.04193 3.89e-4,-3.33e-4 5.99e-4,-0.0014 3.89e-4,-0.002 -1.95e-4,-6.65e-4 -1.95e-4,-0.0014 -1.86e-4,-0.0014 0.0012,0 0.143875,0.07227 0.23491,0.119081 0.160205,0.08237 0.362388,0.18928 0.503139,0.266066 0.272468,0.148644 0.514969,0.287746 0.757313,0.434402 l 0.05973,0.03614 2.93e-4,0.01023 c 1.87e-4,0.0056 -3.6e-5,0.01023 -3.7e-4,0.01023 -2.91e-4,-2.5e-5 -0.0089,-0.0052 -0.01916,-0.01143 z"
       id="path64" />
    <path
       style="fill:#59a52b;fill-opacity:1;fill-rule:nonzero;stroke:#000000;stroke-width:0.00133843;stroke-dasharray:none;stroke-opacity:1"
       d="m 22.53715,25.125899 c -0.215376,-0.20689 -0.487303,-0.442642 -0.756799,-0.656121 -0.426263,-0.337662 -0.889546,-0.659771 -1.440293,-1.001398 l -0.02095,-0.01299 -2.91e-4,-0.0099 c -1.88e-4,-0.0055 -3.5e-5,-0.0099 2.91e-4,-0.0099 2.91e-4,0 0.02038,0.01228 0.04455,0.02728 0.75138,0.466406 1.404116,0.953944 1.998238,1.492519 0.06069,0.05502 0.185058,0.170236 0.198374,0.183787 l 0.0035,0.0035 -0.0046,-3.7e-5 c -0.0043,-3.4e-5 -0.0059,-0.0013 -0.0219,-0.01663 z"
       id="path65" />
    <path
       style="fill:#59a52b;fill-opacity:1;fill-rule:nonzero;stroke:#000000;stroke-width:0.00133843;stroke-dasharray:none;stroke-opacity:1"
       d="m 23.989063,26.91841 c -0.276142,-0.45289 -0.588051,-0.872485 -0.942367,-1.267727 -0.07286,-0.08128 -0.187787,-0.204134 -0.264575,-0.282845 l -0.03062,-0.03139 2.91e-4,-0.0057 2.92e-4,-0.0057 0.0163,0.01617 c 0.137862,0.136825 0.287656,0.29329 0.37073,0.387238 0.184716,0.208898 0.368315,0.45074 0.587078,0.773317 0.07719,0.113799 0.174752,0.261403 0.198389,0.300103 0.0254,0.04157 0.07753,0.133556 0.07639,0.134768 -2.93e-4,3.65e-4 -0.0057,-0.0079 -0.01203,-0.01823 z"
       id="path66" />
    <path
       style="fill:#59a52b;fill-opacity:1;fill-rule:nonzero;stroke:#000000;stroke-width:0.000334608;stroke-dasharray:none;stroke-opacity:1"
       d="m 24.694156,26.853553 c 0,-3.65e-4 0.01976,-0.03239 0.03527,-0.05723 0.111439,-0.178373 0.236245,-0.358558 0.372796,-0.538213 l 0.01003,-0.01317 h 0.0082 0.0082 l -0.0036,0.0045 c -0.0052,0.0066 -0.02508,0.03217 -0.03674,0.04735 -0.136121,0.176915 -0.256391,0.351022 -0.370429,0.536245 -0.005,0.0082 -0.0099,0.01621 -0.01092,0.01778 l -0.0017,0.0028 h -0.0055 c -0.0031,0 -0.0055,-3.6e-5 -0.0055,-1.82e-4 z"
       id="path67" />
    <path
       style="fill:#59a52b;fill-opacity:1;fill-rule:nonzero;stroke:#000000;stroke-width:0.000946408;stroke-dasharray:none;stroke-opacity:1"
       d="m 25.116071,26.240411 c 0.0017,-0.0023 0.0091,-0.01179 0.01628,-0.02112 0.138682,-0.180138 0.28789,-0.35852 0.454948,-0.543898 0.06863,-0.07615 0.211726,-0.22895 0.281048,-0.30009 0.182916,-0.187718 0.358437,-0.358274 0.538918,-0.523666 l 0.03004,-0.02751 0.01467,-3e-5 0.01466,-3e-5 -0.01257,0.01154 c -0.165971,0.15227 -0.339208,0.320575 -0.51121,0.49665 -0.126415,0.129409 -0.304531,0.318482 -0.411084,0.436375 -0.14695,0.162589 -0.285413,0.325575 -0.391933,0.461349 l -0.01143,0.01459 h -0.0077 -0.0077 z"
       id="path68" />
    <path
       style="fill:#59a52b;fill-opacity:1;fill-rule:nonzero;stroke:#000000;stroke-width:0.00189282;stroke-dasharray:none;stroke-opacity:1"
       d="m 25.62122,32.086523 c -0.0071,-0.133998 -0.0046,-0.177069 0.01276,-0.215731 0.02297,-0.05119 0.09562,-0.08769 0.23224,-0.116726 0.03311,-0.0071 0.05336,-0.01024 0.03626,-0.0057 -0.0036,9.62e-4 -0.02103,0.0055 -0.03866,0.01012 -0.05236,0.01377 -0.08814,0.02589 -0.111383,0.03777 -0.02607,0.01333 -0.04641,0.04089 -0.06614,0.08968 -0.02114,0.05225 -0.04275,0.138601 -0.05742,0.229319 l -0.0046,0.02849 z"
       id="path69" />
    <path
       style="fill:#59a52b;fill-opacity:1;fill-rule:nonzero;stroke:#000000;stroke-width:0.000334608;stroke-dasharray:none;stroke-opacity:1"
       d="m 25.70941,32.940114 c -0.0073,-0.0027 -0.01244,-0.0055 -0.01891,-0.01001 -0.02156,-0.0152 -0.03934,-0.04257 -0.05318,-0.08191 -0.01225,-0.03483 -0.02134,-0.07983 -0.02696,-0.133485 -0.0012,-0.01137 -0.0025,-0.02614 -0.0025,-0.0277 1.9e-5,-6.42e-4 2.91e-4,6.41e-4 4.67e-4,0.0027 0.0069,0.04888 0.01421,0.08094 0.02554,0.111818 0.01581,0.04312 0.03694,0.08418 0.05865,0.114043 0.0062,0.0085 0.01131,0.01477 0.01787,0.02179 0.0027,0.003 0.0038,0.0042 0.0034,0.0042 -2.91e-4,-8e-6 -0.0023,-7.32e-4 -0.0045,-0.0015 z"
       id="path70" />
    <path
       style="fill:#59a52b;fill-opacity:1;fill-rule:nonzero;stroke:#000000;stroke-width:0.000669216;stroke-dasharray:none;stroke-opacity:1"
       d="m 26.591865,32.755726 c 0,-3.65e-4 3.69e-4,-7.33e-4 0.001,-9.17e-4 4.66e-4,-2.65e-4 0.01253,-0.0037 0.02663,-0.0078 0.466061,-0.135671 0.924128,-0.303403 1.35299,-0.495429 0.01263,-0.0057 0.02356,-0.01055 0.02429,-0.01082 0.0013,-5.5e-4 0.0013,-5.5e-4 0.0013,0.0046 v 0.0053 l -0.0027,0.0013 c -0.0015,7.34e-4 -0.0151,0.0067 -0.0302,0.0135 -0.441038,0.196799 -0.89359,0.359218 -1.348541,0.483999 -0.01247,0.0035 -0.02316,0.0063 -0.02372,0.0065 -4.66e-4,2.66e-4 -0.001,3.5e-5 -0.001,-2.66e-4 z"
       id="path71" />
    <path
       style="fill:#59a52b;fill-opacity:1;fill-rule:nonzero;stroke:#000000;stroke-width:0.00267689;stroke-dasharray:none;stroke-opacity:1"
       d="m 33.213689,20.283724 c 0.115574,-0.05982 0.187125,-0.11486 0.236463,-0.181907 0.02616,-0.03554 0.04265,-0.06742 0.05891,-0.113824 0.0073,-0.0208 0.0076,-0.02141 0.0063,-0.0098 -0.0058,0.05206 -0.02466,0.120597 -0.04246,0.154325 -0.01297,0.02461 -0.04217,0.0569 -0.06695,0.07403 -0.01975,0.01365 -0.05476,0.0326 -0.08353,0.04517 -0.02157,0.0094 -0.142055,0.0529 -0.146485,0.05286 -0.0014,-1.2e-5 0.01556,-0.0094 0.03764,-0.0208 z"
       id="path72" />
    <path
       style="fill:#59a52b;fill-opacity:1;fill-rule:nonzero;stroke:#000000;stroke-width:0.00047321;stroke-dasharray:none;stroke-opacity:1"
       d="m 32.725911,18.497926 c 1.88e-4,-6.41e-4 0.01627,-0.08451 0.03587,-0.186054 l 0.03562,-0.184637 0.08501,-0.244406 0.08501,-0.244405 h 0.0057 c 0.0047,0 0.0057,7.2e-5 0.0055,6.88e-4 -0.0011,0.0032 -0.02588,0.08428 -0.03827,0.125456 -0.07274,0.241919 -0.142804,0.495721 -0.19902,0.721024 l -0.0035,0.01382 h -0.0061 l -0.0061,1e-6 z"
       id="path73" />
    <path
       style="fill:#59a52b;fill-opacity:1;fill-rule:nonzero;stroke:#000000;stroke-width:0.00189282;stroke-dasharray:none;stroke-opacity:1"
       d="m 44.283922,25.47203 c 3.68e-4,-0.01293 0.0023,-0.06349 0.0039,-0.112349 0.0084,-0.22989 0.01415,-0.470491 0.01817,-0.751281 0.0027,-0.190498 0.0051,-0.651465 0.0039,-0.748902 l -0.0011,-0.09101 h 0.01944 0.01943 l -0.0011,0.162429 c -0.0026,0.386526 -0.01301,0.731577 -0.03323,1.103908 -0.0079,0.145031 -0.02012,0.335823 -0.02706,0.42153 -0.0028,0.03462 -0.0031,0.03645 -0.0024,0.01568 z"
       id="path74" />
    <path
       style="fill:#59a52b;fill-opacity:1;fill-rule:nonzero;stroke:#000000;stroke-width:0.00133843;stroke-dasharray:none;stroke-opacity:1"
       d="m 44.309521,23.712302 c -2.91e-4,-0.02998 -0.0012,-0.124892 -0.002,-0.210926 -0.0049,-0.612999 -0.02265,-1.235107 -0.0478,-1.674056 -0.0013,-0.02314 -0.0023,-0.04391 -0.0021,-0.04619 2.91e-4,-0.0022 0.0032,0.0283 0.0065,0.06794 0.04352,0.506881 0.0701,1.020574 0.07932,1.53345 0.002,0.107039 0.0035,0.248939 0.0035,0.319314 l 9e-6,0.06497 H 44.328486 44.31 Z"
       id="path75" />
    <path
       style="fill:#59a52b;fill-opacity:1;fill-rule:nonzero;stroke:#000000;stroke-width:0.00189282;stroke-dasharray:none;stroke-opacity:1"
       d="m 32.488094,23.68052 c 0.0013,-0.08075 0.01325,-0.125488 0.04135,-0.154747 0.02136,-0.02225 0.06006,-0.04245 0.113415,-0.05924 0.03013,-0.0095 0.100002,-0.02913 0.101585,-0.02858 8.77e-4,2.65e-4 -0.0151,0.0082 -0.03528,0.01772 -0.100308,0.0471 -0.171878,0.08834 -0.189824,0.109372 -0.01142,0.01339 -0.01369,0.02336 -0.02622,0.115477 l -0.0057,0.0418 z"
       id="path76" />
    <path
       style="fill:#59a52b;fill-opacity:1;fill-rule:nonzero;stroke:#000000;stroke-width:0.00189282;stroke-dasharray:none;stroke-opacity:1"
       d="m 33.482466,23.398259 c -0.0033,-0.06684 -0.01423,-0.125971 -0.02872,-0.154677 -0.0071,-0.01397 -0.02249,-0.02946 -0.03383,-0.03395 -0.0109,-0.0043 -0.02847,-0.005 -0.04747,-0.0019 -0.0063,9.95e-4 -0.01187,0.0015 -0.01228,0.0012 -0.002,-0.0021 0.08915,-0.02011 0.116855,-0.02314 l 0.01136,-0.0014 -0.0012,0.107793 c -6.46e-4,0.05929 -0.0017,0.112888 -0.0024,0.119115 -0.0011,0.01034 -0.0012,0.0093 -0.0023,-0.01314 z"
       id="path77" />
    <path
       style="fill:#59a52b;fill-opacity:1;fill-rule:nonzero;stroke:#000000;stroke-width:0.00133843;stroke-dasharray:none;stroke-opacity:1"
       d="m 23.031639,31.979991 c -0.0048,-0.02108 -0.01568,-0.05523 -0.02343,-0.07336 -0.02415,-0.05664 -0.05998,-0.09817 -0.109861,-0.127343 -0.0061,-0.0036 -0.01058,-0.0065 -0.0098,-0.0065 0.0023,0 0.02358,0.0097 0.04056,0.01848 0.03177,0.01639 0.05779,0.03509 0.07033,0.05049 0.02282,0.02806 0.03407,0.06824 0.03578,0.127789 2.91e-4,0.01371 4.67e-4,0.02494 2.91e-4,0.02494 -2.91e-4,0 -0.002,-0.0065 -0.0038,-0.01448 z"
       id="path78" />
    <path
       style="fill:#59a52b;fill-opacity:1;fill-rule:nonzero;stroke:#000000;stroke-width:0.00189282;stroke-dasharray:none;stroke-opacity:1"
       d="m 23.817102,28.83525 c -0.0037,-0.01489 -0.02856,-0.0941 -0.04019,-0.12831 -0.0063,-0.01854 -0.01118,-0.034 -0.0108,-0.03436 2.91e-4,-3.66e-4 0.01263,0.02605 0.02731,0.05869 l 0.02669,0.05934 -3.7e-4,0.02641 c -3.68e-4,0.02476 -4.65e-4,0.02589 -0.0025,0.01825 z"
       id="path79" />
    <path
       style="fill:#59a52b;fill-opacity:1;fill-rule:nonzero;stroke:#000000;stroke-width:0.00189282;stroke-dasharray:none;stroke-opacity:1"
       d="m 24.874977,28.797679 -1.87e-4,-0.06315 0.05624,-0.12452 c 0.03093,-0.06848 0.05656,-0.124179 0.05695,-0.123761 2.91e-4,4.48e-4 -0.0082,0.02334 -0.0191,0.05093 -0.03152,0.07977 -0.04439,0.114336 -0.05399,0.144969 -0.01457,0.04646 -0.02896,0.109452 -0.03744,0.163874 -0.0022,0.01416 -0.0023,0.01204 -0.0025,-0.04835 z"
       id="path80" />
    <path
       style="fill:#59a52b;fill-opacity:1;fill-rule:nonzero;stroke:#000000;stroke-width:0.00378568;stroke-dasharray:none;stroke-opacity:1"
       d="m 25.747753,32.884542 c -0.02718,-0.03266 -0.05588,-0.09437 -0.06884,-0.147978 -0.0145,-0.06008 -0.01821,-0.108945 -0.0181,-0.239589 8.8e-5,-0.132385 0.0039,-0.192956 0.01973,-0.310051 0.02334,-0.173194 0.06174,-0.304832 0.09617,-0.329617 0.02945,-0.0212 0.161428,-0.05416 0.333109,-0.08318 0.127507,-0.02156 0.219402,-0.04301 0.363679,-0.08491 0.360603,-0.104731 0.830105,-0.283732 1.202931,-0.458625 0.601355,-0.2821 1.251068,-0.7218 1.849247,-1.251494 l 0.06459,-0.05719 8.54e-4,0.663074 c 3.69e-4,0.364692 1.88e-4,0.664994 -6.42e-4,0.667342 -0.0017,0.0047 -0.108577,0.07999 -0.212435,0.149584 -0.860201,0.576367 -1.815988,1.012612 -2.871571,1.310657 -0.274612,0.07753 -0.708282,0.188521 -0.736642,0.188521 -0.0057,0 -0.01247,-0.0051 -0.02202,-0.01656 z"
       id="path81" />
    <path
       style="fill:#59a52b;fill-opacity:1;fill-rule:nonzero;stroke:#000000;stroke-width:0.00133843;stroke-dasharray:none;stroke-opacity:1"
       d="m 29.173667,31.616714 3.5e-5,-0.0059 0.01945,-0.01222 c 0.131081,-0.08227 0.309247,-0.201631 0.42081,-0.281917 0.408712,-0.294132 0.93452,-0.791986 1.427932,-1.35202 0.169432,-0.192312 0.341524,-0.402249 0.48337,-0.589671 l 0.03193,-0.04217 h 0.0062 0.0062 l -0.0027,0.004 c -0.0015,0.0022 -0.01633,0.02285 -0.03299,0.04587 -0.427235,0.590451 -0.914666,1.118396 -1.451574,1.572221 -0.28083,0.237376 -0.582072,0.45961 -0.882018,0.650685 -0.01375,0.0087 -0.02542,0.01619 -0.02589,0.0165 -3.7e-4,2.65e-4 -9.75e-4,-0.0021 -8.55e-4,-0.0054 z"
       id="path82" />
    <path
       style="fill:#59a52b;fill-opacity:1;fill-rule:nonzero;stroke:#000000;stroke-width:0.00189282;stroke-dasharray:none;stroke-opacity:1"
       d="m 35.944887,41.052396 c 2.92e-4,-3.58e-4 0.02068,-0.0159 0.04511,-0.03453 0.566601,-0.432299 1.144337,-0.929552 1.701548,-1.464501 0.600732,-0.576728 1.226753,-1.245854 1.761358,-1.882612 l 0.05155,-0.0614 h 0.01317 0.01316 l -0.01546,0.01873 c -0.0085,0.01033 -0.03094,0.03754 -0.04986,0.06053 -0.475299,0.5776 -1.00541,1.153695 -1.546879,1.681063 -0.601815,0.58614 -1.226934,1.125026 -1.890501,1.629713 -0.06482,0.0493 -0.07106,0.05364 -0.0772,0.05364 -0.0037,0 -0.0063,-3.59e-4 -0.006,-6.43e-4 z"
       id="path83" />
    <path
       style="fill:#59a52b;fill-opacity:1;fill-rule:nonzero;stroke:#000000;stroke-width:0.00189282;stroke-dasharray:none;stroke-opacity:1"
       d="m 23.957388,45.019809 c -0.240986,-0.0028 -0.506402,-0.01541 -0.732292,-0.03457 -0.08133,-0.0069 -0.0864,-0.0077 -0.04526,-0.007 0.01945,3.65e-4 0.142754,0.0016 0.273992,0.0028 0.46106,0.0042 1.149437,-0.0033 1.471986,-0.01587 0.02399,-9.18e-4 0.04935,-0.0017 0.05636,-0.0017 l 0.01275,-9e-6 v 0.01378 0.01379 l -0.01192,10e-4 c -0.02426,0.0021 -0.170834,0.01002 -0.261239,0.01404 -0.266264,0.01194 -0.522509,0.01654 -0.76438,0.01364 z"
       id="path84" />
    <path
       style="fill:#59a52b;fill-opacity:1;fill-rule:nonzero;stroke:#000000;stroke-width:0.000946408;stroke-dasharray:none;stroke-opacity:1"
       d="m 23.516777,43.87687 c -0.108774,-0.0014 -0.305367,-0.01201 -0.755739,-0.04077 -0.01856,-0.0012 -0.04947,-0.0032 -0.0687,-0.0043 -0.06029,-0.0038 -0.128637,-0.0085 -0.157567,-0.01091 l -0.01976,-0.0017 0.01687,3.66e-4 c 0.0093,3.65e-4 0.02835,7.33e-4 0.04237,0.0013 0.04484,0.0015 0.102699,0.0025 0.17032,0.0031 0.141245,0.0011 0.194131,0.0044 0.407697,0.02564 0.181956,0.0181 0.24485,0.02234 0.363265,0.02454 0.02806,5.5e-4 0.05601,0.0012 0.06212,0.0015 l 0.0111,6.41e-4 -0.01886,7.34e-4 c -0.01036,3.66e-4 -0.02314,6.42e-4 -0.02839,4.49e-4 -0.0052,0 -0.01638,-3.66e-4 -0.02476,-3.66e-4 z"
       id="path85" />
    <path
       style="fill:#59a52b;fill-opacity:1;fill-rule:nonzero;stroke:#000000;stroke-width:0.00133843;stroke-dasharray:none;stroke-opacity:1"
       d="m 24.84848,42.25091 c 0,-0.621767 2.92e-4,-1.16965 8.55e-4,-1.217523 l 8.54e-4,-0.08704 h 0.0092 0.0092 v 1.217519 1.217523 h -0.0099 -0.0099 z"
       id="path86" />
    <path
       style="fill:#59a52b;fill-opacity:1;fill-rule:nonzero;stroke:#000000;stroke-width:0.00133843;stroke-dasharray:none;stroke-opacity:1"
       d="m 23.834999,43.358607 c -0.0015,-0.01932 -0.0017,-0.175845 -0.0021,-1.217213 l -2.64e-4,-1.195042 h 0.0072 0.0072 l -5.63e-4,0.887122 c -5.64e-4,0.833661 -0.0014,1.061538 -0.0043,1.280641 -0.0012,0.09325 -0.0032,0.197044 -0.0045,0.241412 l -8.55e-4,0.02525 z"
       id="path87" />
    <path
       style="fill:#59a52b;fill-opacity:1;fill-rule:nonzero;stroke:#000000;stroke-width:0.00189282;stroke-dasharray:none;stroke-opacity:1"
       d="M 24.848479,43.639872 V 43.38364 h 0.0099 0.0098 v 0.245601 0.245604 h 0.03908 c 0.03962,0 0.242907,-0.0025 0.337758,-0.0042 0.04719,-7.33e-4 0.03373,3.66e-4 -0.149748,0.01103 -0.110872,0.0065 -0.21177,0.01247 -0.224212,0.01318 l -0.02263,0.0013 z"
       id="path88" />
    <path
       style="fill:#59a52b;fill-opacity:1;fill-rule:nonzero;stroke:#000000;stroke-width:0.00267689;stroke-dasharray:none;stroke-opacity:1"
       d="m 24.996842,44.977082 v -0.01365 l 0.03432,-0.0016 c 0.01889,-8.26e-4 0.07203,-0.0032 0.11811,-0.0053 0.25574,-0.01121 0.552552,-0.02997 0.798239,-0.05047 0.0855,-0.0072 0.085,-0.0054 -0.0012,0.0039 -0.26324,0.0286 -0.721033,0.06789 -0.919835,0.07896 l -0.02968,0.0017 z"
       id="path89" />
    <path
       style="fill:#59a52b;fill-opacity:1;fill-rule:nonzero;stroke:#000000;stroke-width:0.00267689;stroke-dasharray:none;stroke-opacity:1"
       d="m 27.311268,44.747169 c 0.673933,-0.105077 1.289937,-0.232385 1.877801,-0.388066 0.0408,-0.0108 0.07522,-0.01929 0.0765,-0.01885 0.0023,7.34e-4 -0.02657,0.0092 -0.184437,0.05398 -0.578204,0.163905 -1.020655,0.262015 -1.419608,0.314787 -0.08186,0.01082 -0.406466,0.04943 -0.413847,0.0492 -0.0034,0 0.02521,-0.0051 0.0636,-0.01107 z"
       id="path90" />
    <path
       style="fill:#59a52b;fill-opacity:1;fill-rule:nonzero;stroke:#000000;stroke-width:0.00267689;stroke-dasharray:none;stroke-opacity:1"
       d="M 8.3948898,10.968978 C 9.2289331,9.8211007 10.181302,8.7483139 11.224311,7.7818159 c 0.516998,-0.4790802 1.053656,-0.9305408 1.563897,-1.3156146 0.125615,-0.094803 0.115109,-0.087388 0.115964,-0.081847 3.89e-4,0.0027 1.94e-4,0.00634 -1.95e-4,0.00802 -6e-4,0.0017 -0.02923,0.023994 -0.0636,0.049594 -0.43749,0.325856 -0.894562,0.6977751 -1.210983,0.9853728 C 10.87917,8.1092347 9.829886,9.208062 9.1007299,10.0754 c -0.252174,0.299962 -0.426435,0.524861 -0.6942859,0.896051 -0.029665,0.04111 -0.034072,0.04619 -0.040041,0.04619 -0.00643,0 -0.00523,-0.0021 0.028639,-0.04865 z"
       id="path91" />
    <path
       style="fill:#59a52b;fill-opacity:1;fill-rule:nonzero;stroke:#000000;stroke-width:0.00189282;stroke-dasharray:none;stroke-opacity:1"
       d="m 15.814453,17.89881 c -0.159047,-0.55318 -0.389778,-1.201582 -0.596716,-1.67692 -0.0096,-0.02201 -0.01723,-0.0406 -0.01701,-0.04132 9.71e-4,-0.003 0.07569,0.149774 0.106168,0.217105 0.03798,0.08387 0.05862,0.133607 0.09219,0.222197 0.153594,0.405254 0.296861,0.836336 0.409849,1.233242 0.02621,0.09203 0.02379,0.08187 0.01949,0.08185 -0.0033,-2.3e-5 -0.0046,-0.0035 -0.01399,-0.03614 z"
       id="path92" />
    <path
       style="fill:#59a52b;fill-opacity:1;fill-rule:nonzero;stroke:#000000;stroke-width:0.00189282;stroke-dasharray:none;stroke-opacity:1"
       d="m 19.673896,15.532733 c -0.06417,-0.03642 -0.208067,-0.113919 -0.304491,-0.163968 -0.556076,-0.288645 -1.102493,-0.517282 -1.626306,-0.680502 -0.415307,-0.129408 -0.868492,-0.237352 -1.378504,-0.328341 -0.03982,-0.0071 -0.07083,-0.01298 -0.0689,-0.01306 0.0048,-1.64e-4 0.120122,0.01707 0.191495,0.02863 1.06429,0.172595 2.12695,0.55243 3.173926,1.134484 l 0.03659,0.02034 2.4e-5,0.0074 c 1.2e-5,0.0041 -4.08e-4,0.0074 -0.0012,0.0073 -6.01e-4,-3.4e-5 -0.0109,-0.0056 -0.02262,-0.01228 z"
       id="path93" />
    <path
       style="fill:#59a52b;fill-opacity:1;fill-rule:nonzero;stroke:#000000;stroke-width:0.00267689;stroke-dasharray:none;stroke-opacity:1"
       d="m 20.773332,15.182233 c 0.0205,-0.0046 0.04599,-0.02685 0.159891,-0.139127 0.07613,-0.07503 0.08871,-0.0872 0.08871,-0.08573 0,0.0015 -0.05669,0.08531 -0.07447,0.110038 -0.05805,0.08073 -0.112519,0.118554 -0.169885,0.117997 l -0.01746,-1.65e-4 z"
       id="path94" />
    <path
       style="fill:#59a52b;fill-opacity:1;fill-rule:nonzero;stroke:#000000;stroke-width:0.00267689;stroke-dasharray:none;stroke-opacity:1"
       d="m 20.019961,14.754339 c -0.06111,-0.03636 -0.136039,-0.08395 -0.136039,-0.0864 0,-0.0012 0.0062,-0.01526 0.01383,-0.03134 0.04015,-0.08478 0.08746,-0.150684 0.190639,-0.265608 0.04599,-0.05121 0.05153,-0.05691 0.05153,-0.05298 0,0.0015 -9.69e-4,0.0033 -0.0021,0.004 -0.0032,0.0021 -0.06099,0.07896 -0.08998,0.119597 -0.05456,0.07653 -0.0974,0.150886 -0.106866,0.185477 -0.0047,0.01725 -0.0049,0.04022 -4.07e-4,0.05143 0.0059,0.01466 0.03359,0.03767 0.09472,0.07847 0.02859,0.01908 0.03259,0.02216 0.02887,0.02216 -0.0012,0 -0.02112,-0.01117 -0.04409,-0.02485 z"
       id="path95" />
    <path
       style="fill:#59a52b;fill-opacity:1;fill-rule:nonzero;stroke:#000000;stroke-width:0.000334608;stroke-dasharray:none;stroke-opacity:1"
       d="m 20.754887,15.18443 c -0.02536,-0.0054 -0.05083,-0.01745 -0.08436,-0.03983 -0.0063,-0.0042 -0.02117,-0.01472 -0.02955,-0.02087 -0.01585,-0.01168 -0.01975,-0.01458 -0.01962,-0.01469 3.5e-5,-3.6e-5 0.0017,6.89e-4 0.0037,0.0019 0.04343,0.02429 0.09418,0.0514 0.114704,0.06127 0.01069,0.0052 0.01926,0.0084 0.02358,0.0092 0.004,6.87e-4 0.004,6.87e-4 6.47e-4,0.0015 -0.0017,5.04e-4 -0.0034,6.42e-4 -0.0037,10e-4 -3.68e-4,5.3e-5 -5.53e-4,5.05e-4 -5.53e-4,0.001 0,10e-4 2.92e-4,10e-4 -0.0048,-1.65e-4 z"
       id="path96" />
    <path
       style="fill:#59a52b;fill-opacity:1;fill-rule:nonzero;stroke:#000000;stroke-width:0.000946408;stroke-dasharray:none;stroke-opacity:1"
       d="m 21.187845,16.520675 c -0.0055,-0.0043 -0.05239,-0.03942 -0.0901,-0.06729 -0.443563,-0.327963 -0.900832,-0.625264 -1.361393,-0.885135 -0.03469,-0.01957 -0.03867,-0.02204 -0.03812,-0.02357 4.08e-4,-10e-4 6e-4,-0.0043 6e-4,-0.0076 3e-5,-0.0032 1.94e-4,-0.0059 6e-4,-0.0059 6e-4,0 0.06332,0.03535 0.105927,0.05985 0.393756,0.226352 0.779882,0.477637 1.167141,0.759559 0.06914,0.05033 0.173628,0.127984 0.222484,0.165338 l 0.01058,0.0081 -0.0069,-3.2e-5 c -0.0067,-4e-5 -0.0071,-1.65e-4 -0.01102,-0.0034 z"
       id="path97" />
    <path
       style="fill:#59a52b;fill-opacity:1;fill-rule:nonzero;stroke:#000000;stroke-width:0.000669216;stroke-dasharray:none;stroke-opacity:1"
       d="m 23.768358,11.163936 c 0,-3.32e-4 0.03343,-0.02529 0.06021,-0.04511 0.116415,-0.08615 0.194742,-0.138023 0.268214,-0.177621 0.08033,-0.04329 0.147342,-0.06716 0.208285,-0.07419 0.01169,-0.0014 0.03479,-0.0018 0.04566,-10e-4 0.05314,0.0043 0.107291,0.02521 0.177451,0.06858 0.02197,0.01357 0.04367,0.02817 0.09193,0.06182 0.04671,0.03257 0.05529,0.03825 0.101094,0.06702 0.01608,0.01013 0.02914,0.01848 0.02901,0.01861 -1.87e-4,1.66e-4 -0.0057,-0.0028 -0.01236,-0.0067 -0.07877,-0.04558 -0.155235,-0.08662 -0.215767,-0.115758 -0.106504,-0.05127 -0.182809,-0.07546 -0.226824,-0.07189 -0.0375,0.0031 -0.09023,0.02255 -0.169678,0.06278 -0.08346,0.04227 -0.206722,0.115814 -0.340531,0.203172 -0.01563,0.01024 -0.01669,0.01087 -0.01669,0.01024 z"
       id="path98" />
    <path
       style="fill:#59a52b;fill-opacity:1;fill-rule:nonzero;stroke:#000000;stroke-width:0.00133843;stroke-dasharray:none;stroke-opacity:1"
       d=""
       id="path99" />
    <path
       style="fill:#59a52b;fill-opacity:1;fill-rule:nonzero;stroke:#000000;stroke-width:0.00133843;stroke-dasharray:none;stroke-opacity:1"
       d="m 21.322732,13.070347 v -0.0056 l 0.02066,-0.01826 c 0.05527,-0.04886 0.07866,-0.06895 0.263268,-0.226319 0.333833,-0.284559 0.533276,-0.451843 0.719695,-0.603655 0.383057,-0.31194 0.711473,-0.558268 1.028504,-0.771416 0.03433,-0.02309 0.04278,-0.02842 0.03969,-0.02508 -5.63e-4,6.43e-4 -0.01845,0.01361 -0.03956,0.0287 -0.636454,0.454944 -1.447941,1.103992 -2.007233,1.605442 -0.01215,0.01089 -0.02277,0.02025 -0.02357,0.02077 -0.0011,6.43e-4 -0.0014,-5.03e-4 -0.0014,-0.0046 z"
       id="path100" />
    <path
       style="fill:#59a52b;fill-opacity:1;fill-rule:nonzero;stroke:#000000;stroke-width:0.000334608;stroke-dasharray:none;stroke-opacity:1"
       d="m 20.66631,13.703396 c 0.0023,-0.0026 0.06662,-0.07079 0.08596,-0.09101 0.164797,-0.172161 0.339223,-0.340952 0.522169,-0.505301 l 0.01221,-0.01098 0.0075,-4e-6 c 0.0064,-2e-6 0.0075,3.6e-5 0.0071,5.04e-4 -2.92e-4,3.31e-4 -0.0058,0.0053 -0.01234,0.01113 -0.07266,0.06535 -0.163455,0.149 -0.223416,0.205803 -0.120596,0.114249 -0.237493,0.231352 -0.372066,0.372713 l -0.01774,0.01865 -0.0053,1.4e-5 -0.0053,1.7e-5 z"
       id="path101" />
    <path
       style="fill:#59a52b;fill-opacity:1;fill-rule:nonzero;stroke:#000000;stroke-width:0.000334608;stroke-dasharray:none;stroke-opacity:1"
       d="m 20.141519,14.826109 c -0.04353,-0.02472 -0.08213,-0.04691 -0.08195,-0.04711 3.5e-5,-3.6e-5 0.001,3.32e-4 0.0021,6.43e-4 0.0023,0.0012 0.0036,0.0012 0.0045,1.63e-4 0.001,-10e-4 8.3e-4,-0.002 -1.96e-4,-0.0032 -1.94e-4,-5.04e-4 -4.07e-4,-6.41e-4 -4.07e-4,-6.41e-4 9.1e-5,0 0.0025,0.0015 0.0052,0.0034 0.01629,0.01075 0.04567,0.02971 0.06568,0.04236 0.0067,0.0042 0.01219,0.0078 0.01234,0.0079 8.77e-4,6.87e-4 -9.69e-4,-5.2e-5 -0.0071,-0.0036 z"
       id="path102" />
    <path
       style="fill:#59a52b;fill-opacity:1;fill-rule:nonzero;stroke:#000000;stroke-width:0.000334608;stroke-dasharray:none;stroke-opacity:1"
       d="m 20.134698,14.317858 c 3.68e-4,-5.05e-4 0.0037,-0.0042 0.0073,-0.0081 0.02275,-0.02519 0.03613,-0.04028 0.05146,-0.05799 0.0041,-0.0047 0.0076,-0.0086 0.0076,-0.0085 3.5e-5,3.9e-5 -0.0022,0.003 -0.0049,0.0064 -0.01025,0.01266 -0.02856,0.03565 -0.04149,0.05208 l -0.01328,0.01689 -1.88e-4,-0.0012 c -3.7e-4,-0.0026 -0.0023,-0.0026 -0.0053,1.3e-5 -0.0019,0.0017 -0.0024,0.0018 -0.0012,5.05e-4 z"
       id="path103" />
    <path
       style="fill:#59a52b;fill-opacity:1;fill-rule:nonzero;stroke:#000000;stroke-width:0.000236603;stroke-dasharray:none;stroke-opacity:1"
       d="m 20.265215,14.164544 c 2.91e-4,-3.32e-4 0.0019,-0.0023 0.0036,-0.0044 0.01047,-0.01309 0.03525,-0.04331 0.05416,-0.06618 0.09723,-0.117579 0.197461,-0.232383 0.303917,-0.348108 l 0.01025,-0.01116 h 0.0053 0.0053 l -0.01561,0.01671 c -0.06825,0.07304 -0.13378,0.145089 -0.197141,0.216698 -0.05709,0.06453 -0.111583,0.12776 -0.161205,0.187073 -0.0058,0.007 -0.0085,0.0099 -0.0087,0.0099 -3.69e-4,0 -3.69e-4,-3.7e-5 9e-5,-6.87e-4 z"
       id="path104" />
    <path
       style="fill:#59a52b;fill-opacity:1;fill-rule:nonzero;stroke:#000000;stroke-width:0.000236603;stroke-dasharray:none;stroke-opacity:1"
       d="m 20.639278,13.732421 c 0.0011,-0.0012 0.0071,-0.0077 0.01353,-0.01469 l 0.01172,-0.01264 0.0056,-1.2e-5 0.0055,-10e-6 -0.01374,0.01471 -0.01375,0.0147 -0.0053,4e-6 -0.0053,2e-6 z"
       id="path105" />
    <path
       style="fill:#59a52b;fill-opacity:1;fill-rule:nonzero;stroke:#000000;stroke-width:0.000211653;stroke-dasharray:none;stroke-opacity:1"
       d="m 21.008375,14.967025 c 4.61e-4,-6.87e-4 0.0074,-0.0075 0.01527,-0.01532 0.0079,-0.0078 0.0151,-0.01518 0.01615,-0.01623 0.0011,-0.0012 0.0019,-0.0019 0.0019,-0.0018 0,5.2e-5 -0.0012,0.0018 -0.0028,0.0039 -0.0049,0.0065 -0.01623,0.02229 -0.0187,0.02601 -2.91e-4,3.33e-4 -3.69e-4,6.88e-4 -4.61e-4,5.05e-4 -3.2e-5,-3.5e-5 6.47e-4,-0.0015 0.0017,-0.0031 0.0021,-0.0033 0.0023,-0.0039 0.0014,-0.0047 -0.0012,-0.0014 -0.0025,-3.32e-4 -0.01171,0.0084 -0.0034,0.0032 -0.0048,0.0044 -0.0027,0.0022 z"
       id="path106" />
    <path
       style="fill:#59a52b;fill-opacity:1;fill-rule:nonzero;stroke:#000000;stroke-width:0.000423305;stroke-dasharray:none;stroke-opacity:1"
       d="m 23.223174,12.883075 c 0,-1.64e-4 0.03347,-0.02753 0.06496,-0.05307 0.163046,-0.132229 0.316712,-0.252031 0.449712,-0.350606 0.03644,-0.02701 0.07301,-0.05366 0.07326,-0.05341 8.9e-5,5.3e-5 -0.0033,0.0031 -0.0075,0.0065 -0.01178,0.0098 -0.03153,0.02635 -0.06155,0.05159 -0.100733,0.0846 -0.1355,0.112524 -0.191368,0.153683 -0.116103,0.08554 -0.224446,0.16674 -0.316589,0.237297 -0.0099,0.0076 -0.01094,0.0083 -0.01094,0.0079 z"
       id="path107" />
    <path
       style="fill:#59a52b;fill-opacity:1;fill-rule:nonzero;stroke:#000000;stroke-width:0.000598642;stroke-dasharray:none;stroke-opacity:1"
       d="m 27.892245,15.176988 c -0.02368,-0.0031 -0.04843,-0.0139 -0.07335,-0.03222 -0.0242,-0.01778 -0.04819,-0.04143 -0.08808,-0.08676 -0.008,-0.0091 -0.01842,-0.02086 -0.02314,-0.02616 -0.0047,-0.0053 -0.04699,-0.05035 -0.09395,-0.100131 -0.04696,-0.04976 -0.08521,-0.09048 -0.085,-0.09048 1.87e-4,0 0.01025,0.0096 0.02237,0.02134 0.162039,0.157259 0.280685,0.26547 0.326722,0.29799 0.01148,0.0081 0.01948,0.01248 0.02707,0.01481 0.0046,0.0015 0.01416,0.0015 0.01836,5.3e-5 0.0063,-0.0021 0.09342,-0.04547 0.128888,-0.06427 0.0058,-0.0031 0.01079,-0.0055 0.01113,-0.0054 5.63e-4,1.65e-4 -0.01948,0.01455 -0.03164,0.02257 -0.03475,0.02289 -0.06535,0.03794 -0.09092,0.04473 -0.0169,0.0045 -0.0334,0.0058 -0.04848,0.0039 z"
       id="path108" />
    <path
       style="fill:#59a52b;fill-opacity:1;fill-rule:nonzero;stroke:#000000;stroke-width:0.000598642;stroke-dasharray:none;stroke-opacity:1"
       d="m 28.520623,14.839372 c 1.88e-4,-5.3e-5 0.0068,-0.0045 0.01478,-0.0098 0.07536,-0.04978 0.131316,-0.09086 0.166608,-0.122311 0.0117,-0.01044 0.02747,-0.02711 0.03291,-0.03486 0.0095,-0.01339 0.0131,-0.02466 0.01238,-0.03806 -0.0014,-0.02624 -0.01379,-0.06549 -0.03681,-0.116648 -0.01924,-0.04276 -0.04971,-0.09816 -0.06958,-0.126522 -0.02146,-0.0306 -0.0615,-0.07886 -0.115868,-0.139628 -0.07048,-0.07878 -0.189356,-0.204431 -0.308798,-0.326401 -0.0072,-0.0074 -0.01304,-0.01352 -0.01291,-0.01365 2.92e-4,-5.05e-4 0.07397,0.06803 0.115586,0.107521 0.121984,0.115737 0.207829,0.206353 0.274576,0.289842 0.07403,0.09261 0.124208,0.175662 0.15379,0.254573 0.01219,0.03254 0.01576,0.04991 0.0143,0.0697 -0.0022,0.02976 -0.01512,0.05792 -0.03799,0.08272 -0.01117,0.01211 -0.02,0.0196 -0.03829,0.0324 -0.03976,0.02785 -0.08014,0.05242 -0.13172,0.08014 l -0.02087,0.01122 h -0.0061 c -0.0034,0 -0.006,-5e-5 -0.0059,-1.65e-4 z"
       id="path109" />
    <path
       style="fill:#59a52b;fill-opacity:1;fill-rule:nonzero;stroke:#000000;stroke-width:0.000211653;stroke-dasharray:none;stroke-opacity:1"
       d="m 27.937344,16.187289 3e-6,-0.0051 0.01218,-0.0084 c 0.143886,-0.09999 0.27664,-0.188847 0.412308,-0.275944 0.0087,-0.0056 0.01686,-0.01081 0.018,-0.01156 0.0011,-6.87e-4 0.0021,-0.0014 0.0022,-0.0014 3.3e-5,0 9e-5,0.0021 9e-5,0.0045 v 0.0045 l -5.64e-4,3.33e-4 c -0.0012,6.87e-4 -0.02771,0.01785 -0.03924,0.02533 -0.1309,0.08491 -0.259538,0.171504 -0.391989,0.263885 -0.007,0.0048 -0.01278,0.0089 -0.01282,0.0089 -3.3e-5,0 -9e-5,-0.0023 -9e-5,-0.0051 z"
       id="path110" />
    <path
       style="fill:#59a52b;fill-opacity:1;fill-rule:nonzero;stroke:#000000;stroke-width:0.000846613;stroke-dasharray:none;stroke-opacity:1"
       d="m 27.0323,16.87127 v -0.0034 l 0.0083,-0.0067 c 0.0046,-0.0037 0.02066,-0.01677 0.03578,-0.02905 0.219559,-0.178428 0.458591,-0.361467 0.686458,-0.525653 0.0637,-0.04589 0.172599,-0.122984 0.173742,-0.122984 2.91e-4,0 2.91e-4,0.0021 1.88e-4,0.0045 l -2.91e-4,0.0045 -0.04011,0.02826 c -0.268585,0.189274 -0.534698,0.389807 -0.812575,0.612323 -0.02596,0.0208 -0.04705,0.03776 -0.0506,0.04073 -6.41e-4,6.42e-4 -9.74e-4,-2.3e-5 -9.74e-4,-0.0026 z"
       id="path111" />
    <path
       style="fill:#59a52b;fill-opacity:1;fill-rule:nonzero;stroke:#000000;stroke-width:0.000299323;stroke-dasharray:none;stroke-opacity:1"
       d="m 26.2833,17.516558 c 0.0025,-0.0025 0.07557,-0.06898 0.108644,-0.0988 0.124442,-0.112207 0.253641,-0.225528 0.372058,-0.326345 l 0.0033,-0.0028 -1.5e-5,0.003 -1.8e-5,0.003 -0.0076,0.0064 c -0.01414,0.01206 -0.04458,0.03839 -0.06667,0.05768 -0.124408,0.108601 -0.255261,0.227888 -0.38448,0.350495 l -0.0085,0.008 -0.0087,2e-6 -0.0087,3e-6 z"
       id="path112" />
    <path
       style="fill:#59a52b;fill-opacity:1;fill-rule:nonzero;stroke:#000000;stroke-width:0.000211653;stroke-dasharray:none;stroke-opacity:1"
       d="m 26.767613,17.091252 4e-6,-0.0031 0.0031,-0.0026 c 0.08446,-0.07184 0.167452,-0.141146 0.245138,-0.204712 0.0076,-0.0062 0.01435,-0.01173 0.01489,-0.01221 l 0.001,-8.26e-4 9e-5,0.0032 c 9.1e-5,0.0027 1.88e-4,0.0032 3.69e-4,0.0034 2.93e-4,1.65e-4 2.93e-4,3.34e-4 1.87e-4,5.06e-4 -8.9e-5,7.1e-5 -0.009,0.0073 -0.01977,0.01604 -0.08551,0.06918 -0.146865,0.11986 -0.210028,0.173463 -0.01211,0.01023 -0.0341,0.02901 -0.03475,0.02961 -2.91e-4,3.32e-4 -2.91e-4,1.64e-4 -2.91e-4,-0.0027 z"
       id="path113" />
    <path
       style="fill:#59a52b;fill-opacity:1;fill-rule:nonzero;stroke:#000000;stroke-width:0.000299323;stroke-dasharray:none;stroke-opacity:1"
       d="m 25.667897,18.118729 c 0.0071,-0.0079 0.08996,-0.09557 0.105099,-0.111244 0.07541,-0.07807 0.138353,-0.140927 0.209217,-0.208927 0.05821,-0.05587 0.129541,-0.123122 0.208765,-0.196857 l 0.0041,-0.0038 v 0.01001 0.01001 l -0.0026,0.0026 c -0.0014,0.0015 -0.0093,0.0091 -0.01737,0.0169 -0.111618,0.108518 -0.228529,0.225899 -0.341673,0.343041 -0.0335,0.03468 -0.0481,0.04994 -0.10009,0.104624 l -0.03698,0.0389 h -0.01658 -0.01658 z"
       id="path114" />
    <path
       style="fill:#59a52b;fill-opacity:1;fill-rule:nonzero;stroke:#000000;stroke-width:0.000211653;stroke-dasharray:none;stroke-opacity:1"
       d="m 26.195348,17.607698 v -0.01012 l 0.01281,-0.01186 c 0.02179,-0.0202 0.04804,-0.04438 0.06692,-0.06171 l 0.0072,-0.0065 h 0.0088 c 0.0048,0 0.0087,3.7e-5 0.0086,1.65e-4 -0.0222,0.02101 -0.09598,0.0918 -0.103723,0.09953 l -6.41e-4,6.41e-4 z"
       id="path115" />
    <path
       style="fill:#59a52b;fill-opacity:1;fill-rule:nonzero;stroke:#000000;stroke-width:0.000299323;stroke-dasharray:none;stroke-opacity:1"
       d="m 25.174001,18.695648 c 0.152888,-0.191602 0.304018,-0.369329 0.449707,-0.528863 l 0.01036,-0.01136 h 0.01643 0.01642 l -0.0062,0.0066 c -0.138104,0.147518 -0.277176,0.302258 -0.403094,0.448498 -0.02233,0.02593 -0.05946,0.06943 -0.07258,0.08504 l -0.0036,0.0043 -0.0055,1e-6 -0.0055,2e-6 z"
       id="path116" />
    <path
       style="fill:#59a52b;fill-opacity:1;fill-rule:nonzero;stroke:#000000;stroke-width:0.000211653;stroke-dasharray:none;stroke-opacity:1"
       d="m 24.423176,19.757624 c 0,-6.9e-5 0.0038,-0.0087 0.0062,-0.01405 0.02558,-0.05691 0.05754,-0.117428 0.09449,-0.178935 0.01468,-0.02441 0.02853,-0.0465 0.04763,-0.07587 l 0.0015,-0.0024 0.0071,-10e-6 c 0.0056,-7e-6 0.007,3.6e-5 0.0069,3.33e-4 -9e-5,1.63e-4 -0.0033,0.0052 -0.0071,0.01124 -0.03016,0.04791 -0.05556,0.0907 -0.08124,0.136825 -0.02877,0.0517 -0.04982,0.08609 -0.07413,0.121197 -0.0011,0.0017 -0.0014,0.0019 -0.0014,0.0018 z"
       id="path117" />
    <path
       style="fill:#59a52b;fill-opacity:1;fill-rule:nonzero;stroke:#000000;stroke-width:0.000211653;stroke-dasharray:none;stroke-opacity:1"
       d="m 24.579904,19.486228 c -0.0036,-3e-5 -0.0065,-7e-5 -0.0065,-1.64e-4 0,-3.33e-4 0.01639,-0.02488 0.02611,-0.03915 0.05254,-0.07725 0.10998,-0.154727 0.204254,-0.275506 l 0.0053,-0.0069 8.53e-4,-3.7e-5 8.54e-4,-3.3e-5 -9.74e-4,0.0014 c -4.65e-4,6.41e-4 -0.0037,0.005 -0.007,0.0094 -0.08016,0.108007 -0.154592,0.215268 -0.210965,0.303985 -0.0036,0.0058 -0.0047,0.0073 -0.005,0.0072 -1.88e-4,-2e-5 -0.0034,-3.4e-5 -0.007,-7.1e-5 z"
       id="path118" />
    <path
       style="fill:#59a52b;fill-opacity:1;fill-rule:nonzero;stroke:#000000;stroke-width:0.000299323;stroke-dasharray:none;stroke-opacity:1"
       d="m 24.086337,19.521994 c -0.103963,-0.151428 -0.247697,-0.34978 -0.375108,-0.517637 -0.0064,-0.0084 -0.01169,-0.01544 -0.0118,-0.01562 -1.88e-4,-3.33e-4 9.74e-4,-3.33e-4 0.0052,-3.33e-4 h 0.0055 l 0.0052,0.007 c 0.04694,0.06277 0.08391,0.113042 0.131941,0.179384 0.03366,0.0465 0.05135,0.06987 0.111914,0.147916 0.06912,0.08906 0.09837,0.127955 0.129223,0.171744 0.0094,0.01329 0.02533,0.03646 0.02634,0.03822 1.88e-4,3.32e-4 -0.002,3.32e-4 -0.01025,3.32e-4 h -0.01047 z"
       id="path119" />
    <path
       style="fill:#59a52b;fill-opacity:1;fill-rule:nonzero;stroke:#000000;stroke-width:0.000299323;stroke-dasharray:none;stroke-opacity:1"
       d="m 24.239562,19.771045 c -0.0019,-0.0039 -0.0052,-0.0113 -0.0075,-0.01637 -0.0053,-0.0122 -0.008,-0.01744 -0.01451,-0.02934 -0.02001,-0.03644 -0.06456,-0.105834 -0.120098,-0.1871 l -0.0034,-0.0051 0.0096,-5e-6 c 0.0052,-1e-6 0.0099,-3.5e-5 0.01047,-1.65e-4 9.74e-4,-1.64e-4 9.74e-4,-6.9e-5 0.0023,0.002 8.55e-4,0.0012 0.0034,0.0052 0.0059,0.0089 0.05068,0.07654 0.08794,0.146535 0.113205,0.212647 0.0037,0.0097 0.0077,0.02092 0.0076,0.02128 -3.3e-5,1.64e-4 -0.0016,-0.0028 -0.0035,-0.0069 z"
       id="path120" />
    <path
       style="fill:#59a52b;fill-opacity:1;fill-rule:nonzero;stroke:#000000;stroke-width:0.000299323;stroke-dasharray:none;stroke-opacity:1"
       d="m 24.309227,19.852854 c -0.0067,-0.0012 -0.01431,-0.005 -0.02108,-0.01055 l -0.0022,-0.0018 0.01557,-3.5e-5 c 0.0086,-3.5e-5 0.02249,-3.5e-5 0.03098,0 l 0.01539,3.5e-5 -0.0036,0.0022 c -0.008,0.0051 -0.01523,0.0082 -0.02222,0.0097 -0.0036,6.88e-4 -0.0096,0.001 -0.01286,5.04e-4 z"
       id="path121" />
    <path
       style="fill:#59a52b;fill-opacity:1;fill-rule:nonzero;stroke:#000000;stroke-width:0.000299323;stroke-dasharray:none;stroke-opacity:1"
       d="m 24.277479,19.831997 c -0.0047,-0.0051 -0.01036,-0.01252 -0.0098,-0.01274 1.88e-4,-6.9e-5 0.0029,-0.001 0.0061,-0.0019 l 0.0057,-0.0018 9.1e-5,0.0046 c 3.4e-5,0.0025 3.4e-5,0.0067 0,0.0093 l -9.1e-5,0.0046 z"
       id="path122" />
    <path
       style="fill:#59a52b;fill-opacity:1;fill-rule:nonzero;stroke:#000000;stroke-width:0.000211653;stroke-dasharray:none;stroke-opacity:1"
       d="m 23.59321,18.851766 c -0.09385,-0.119371 -0.199189,-0.24757 -0.30273,-0.36841 -0.0049,-0.0057 -0.0088,-0.01045 -0.0088,-0.01045 0,-3.8e-5 0.0044,-7.4e-5 0.0097,-7.4e-5 l 0.0097,4e-6 0.0091,0.01075 c 0.099,0.118038 0.1929,0.234672 0.290184,0.360479 0.0057,0.0073 0.01036,0.01347 0.01047,0.01357 8.7e-5,1.65e-4 -0.0013,3.32e-4 -0.0062,3.32e-4 h -0.0064 z"
       id="path123" />
    <path
       style="fill:#59a52b;fill-opacity:1;fill-rule:nonzero;stroke:#000000;stroke-width:0.000846613;stroke-dasharray:none;stroke-opacity:1"
       d="m 23.266318,18.454673 c -0.02822,-0.03261 -0.05783,-0.0666 -0.07788,-0.0894 -0.273374,-0.310758 -0.581009,-0.626895 -0.886215,-0.910699 -0.01376,-0.0128 -0.02585,-0.0241 -0.02686,-0.0251 l -0.0019,-0.0018 h 0.0068 0.0068 l 0.02269,0.0208 c 0.04917,0.04509 0.08982,0.08282 0.146708,0.13616 0.179488,0.168329 0.30407,0.291917 0.451599,0.447989 0.109566,0.115908 0.208472,0.225522 0.31389,0.347879 0.02065,0.02397 0.0695,0.08137 0.07577,0.08901 l 0.0024,0.0028 h -0.0092 -0.0092 z"
       id="path124" />
    <path
       style="fill:#59a52b;fill-opacity:1;fill-rule:nonzero;stroke:#000000;stroke-width:0.000299323;stroke-dasharray:none;stroke-opacity:1"
       d="m 21.942477,17.13126 c -0.159345,-0.138841 -0.353897,-0.299553 -0.525394,-0.434008 -0.0067,-0.0052 -0.0122,-0.0096 -0.01234,-0.0097 -1.86e-4,-1.64e-4 0.0025,-3.32e-4 0.0061,-3.32e-4 h 0.0063 l 0.03201,0.02541 c 0.16969,0.134714 0.333887,0.270775 0.499827,0.414184 l 0.0091,0.0078 v 0.0051 c 0,0.0027 -2.9e-5,0.0051 -3.4e-5,0.0051 -3.4e-5,-1.4e-5 -0.007,-0.0061 -0.01554,-0.0135 z"
       id="path125" />
    <path
       style="fill:#59a52b;fill-opacity:1;fill-rule:nonzero;stroke:#000000;stroke-width:0.000299323;stroke-dasharray:none;stroke-opacity:1"
       d=""
       id="path126" />
    <path
       style="fill:#59a52b;fill-opacity:1;fill-rule:nonzero;stroke:#000000;stroke-width:0.000299323;stroke-dasharray:none;stroke-opacity:1"
       d="m 22.25108,17.407498 c -0.0016,-0.0015 -0.01003,-0.0093 -0.01861,-0.01716 -0.08594,-0.07906 -0.174698,-0.158554 -0.266123,-0.23836 l -0.008,-0.007 v -0.0048 c 0,-0.0027 3.4e-5,-0.005 1.87e-4,-0.005 8.9e-5,0 0.01386,0.01186 0.04006,0.03469 0.08356,0.0728 0.165223,0.145444 0.249881,0.222282 l 0.01255,0.0114 v 0.0034 0.0034 l -0.0035,-1.2e-5 -0.0035,-1.6e-5 z"
       id="path127" />
    <path
       style="fill:#59a52b;fill-opacity:1;fill-rule:nonzero;stroke:#000000;stroke-width:0.000211653;stroke-dasharray:none;stroke-opacity:1"
       d="m 22.263352,17.418878 -0.0089,-0.0082 0.0034,-3.5e-5 0.0034,-3.5e-5 v -0.0033 c 0,-0.0018 3.5e-5,-0.0033 9e-5,-0.0033 9.1e-5,0 0.01677,0.01516 0.02342,0.02127 l 0.0021,0.0019 -0.0073,3.5e-5 -0.0073,3.7e-5 z"
       id="path128" />
    <path
       style="fill:#59a52b;fill-opacity:1;fill-rule:nonzero;stroke:#000000;stroke-width:0.000299323;stroke-dasharray:none;stroke-opacity:1"
       d="m 21.401091,16.684688 c -0.05805,-0.04551 -0.12631,-0.09802 -0.187766,-0.144448 -0.01151,-0.0087 -0.021,-0.01588 -0.02108,-0.01596 -8.9e-5,-7.1e-5 1.89e-4,-3.6e-5 4.63e-4,2.5e-5 2.92e-4,7e-5 0.0038,3.33e-4 0.0076,3.33e-4 l 0.007,1.65e-4 0.0049,0.0038 c 0.0551,0.04181 0.130239,0.09999 0.196194,0.151922 l 0.0081,0.0063 -0.0015,3.6e-5 c -8.55e-4,3.7e-5 -0.0036,6.9e-5 -0.0062,1.65e-4 l -0.0047,3.5e-5 z"
       id="path129" />
    <path
       style="fill:#59a52b;fill-opacity:1;fill-rule:nonzero;stroke:#000000;stroke-width:0.000846613;stroke-dasharray:none;stroke-opacity:1"
       d="m 13.600869,15.319394 c -0.05138,-0.08615 -0.104564,-0.19103 -0.136874,-0.269912 -0.08974,-0.219077 -0.09952,-0.401831 -0.0303,-0.565376 0.02739,-0.06469 0.06914,-0.12842 0.115767,-0.176702 0.03481,-0.03604 0.069,-0.06216 0.111777,-0.08539 0.08064,-0.04378 0.171421,-0.06458 0.304348,-0.06973 0.03189,-0.0014 0.13299,-5.04e-4 0.196523,0.0017 0.03209,0.001 0.08268,0.0019 0.139109,0.0023 0.100439,6.88e-4 0.146098,0.0015 0.160268,0.0021 l 0.0097,5.05e-4 v 0.0051 0.0051 l -0.0127,-5.05e-4 c -0.02043,-6.4e-4 -0.105776,-0.0019 -0.181619,-0.0024 -0.09057,-6.41e-4 -0.18304,6.87e-4 -0.249879,0.0036 -0.187556,0.0081 -0.302144,0.03034 -0.385496,0.07447 -0.03547,0.01878 -0.06328,0.03995 -0.09035,0.06878 -0.03231,0.03442 -0.0561,0.0712 -0.08243,0.127449 -0.03551,0.07584 -0.05551,0.139875 -0.06437,0.20607 -0.0037,0.02806 -0.0045,0.03926 -0.0045,0.07557 4e-6,0.03532 6e-4,0.04632 0.004,0.07479 0.01654,0.135924 0.07723,0.29036 0.198408,0.50499 0.0062,0.01098 0.01131,0.02021 0.01131,0.02045 0,3.33e-4 -0.0024,5.05e-4 -0.0056,5.05e-4 h -0.0055 z"
       id="path130" />
    <path
       style="fill:#59a52b;fill-opacity:1;fill-rule:nonzero;stroke:#000000;stroke-width:0.000299323;stroke-dasharray:none;stroke-opacity:1"
       d="m 13.787115,15.619282 c -0.01117,-0.01775 -0.03184,-0.05038 -0.04589,-0.07249 -0.07021,-0.11041 -0.101683,-0.161147 -0.133815,-0.215675 l -0.0046,-0.0077 0.0048,-1.65e-4 c 0.0058,-3.32e-4 0.0065,-3.32e-4 0.0065,-10e-4 0,-3.33e-4 7.84e-4,8.25e-4 0.0017,0.0025 0.02336,0.04057 0.04481,0.07666 0.07615,0.127936 0.04257,0.06969 0.07267,0.121388 0.112707,0.193591 0.0015,0.0027 0.0027,0.0051 0.0027,0.0052 -3.5e-5,3.7e-5 -0.0093,-0.01442 -0.02042,-0.03218 z"
       id="path131" />
    <path
       style="fill:#59a52b;fill-opacity:1;fill-rule:nonzero;stroke:#000000;stroke-width:0.000846613;stroke-dasharray:none;stroke-opacity:1"
       d="m 10.929483,19.041037 c -0.06304,-0.04423 -0.177863,-0.120039 -0.230562,-0.152236 l -0.005,-0.0031 v -0.0119 c 0,-0.0065 1.94e-4,-0.01191 6e-4,-0.01191 0.0021,0 0.07089,0.04956 0.108698,0.0782 0.03526,0.0267 0.132314,0.102725 0.136504,0.106926 0.0026,0.0025 -9.7e-4,5.04e-4 -0.01025,-0.006 z"
       id="path132" />
    <path
       style="fill:#59a52b;fill-opacity:1;fill-rule:nonzero;stroke:#000000;stroke-width:0.000299323;stroke-dasharray:none;stroke-opacity:1"
       d="m 9.328468,19.892335 c 6e-4,-0.0024 0.010037,-0.03273 0.015198,-0.0491 0.044328,-0.142071 0.083844,-0.256055 0.1245214,-0.359185 0.00371,-0.0094 0.016791,-0.04192 0.017849,-0.04427 l 1.943e-4,-6.4e-4 h 0.0097 c 0.00534,0 0.0097,3.5e-5 0.0097,7e-5 0,3.6e-5 -0.0012,0.0032 -0.00294,0.007 -0.040313,0.09584 -0.086878,0.220979 -0.1359521,0.365348 -0.010922,0.0321 -0.027189,0.08074 -0.027189,0.08125 0,1.67e-4 -0.00207,3.32e-4 -0.00578,3.32e-4 h -0.00578 z"
       id="path133" />
    <path
       style="fill:#59a52b;fill-opacity:1;fill-rule:nonzero;stroke:#000000;stroke-width:0.000423305;stroke-dasharray:none;stroke-opacity:1"
       d="m 9.1484781,20.490714 c 1.887e-4,-6.86e-4 0.00316,-0.01106 0.00665,-0.02327 0.022736,-0.08011 0.04411,-0.151622 0.071014,-0.237622 0.01918,-0.06128 0.027112,-0.08739 0.064959,-0.213666 0.014238,-0.04754 0.023567,-0.07841 0.030624,-0.10147 0.00316,-0.01024 0.00589,-0.01925 0.00611,-0.01992 l 3.885e-4,-0.0012 0.00556,-1.65e-4 c 0.00305,-7.2e-5 0.00556,-1.66e-4 0.00556,-1.66e-4 3.38e-5,2.8e-5 -3.884e-4,0.002 -0.00131,0.0043 -6e-4,0.0023 -0.00458,0.01391 -0.0084,0.02571 -0.032479,0.09865 -0.068451,0.212275 -0.094155,0.297415 -0.026194,0.08677 -0.05646,0.191902 -0.075554,0.262453 l -0.0024,0.0086 -0.00469,1e-6 -0.00469,3e-6 z"
       id="path134" />
    <path
       style="fill:#59a52b;fill-opacity:1;fill-rule:nonzero;stroke:#000000;stroke-width:0.000423305;stroke-dasharray:none;stroke-opacity:1"
       d="m 15.201204,22.618594 c 0,-0.0039 0.005,-0.156348 0.007,-0.213761 7.84e-4,-0.02218 0.0013,-0.03786 0.0013,-0.03487 3.5e-5,0.0063 0.0017,0.130358 0.0029,0.198002 3.89e-4,0.02577 6e-4,0.04808 6e-4,0.04956 v 0.0027 h -0.0061 -0.0061 z"
       id="path135" />
    <path
       style="fill:#59a52b;fill-opacity:1;fill-rule:nonzero;stroke:#000000;stroke-width:0.000211653;stroke-dasharray:none;stroke-opacity:1"
       d="m 15.283229,24.915727 c -3.88e-4,-0.0028 -0.0015,-0.01056 -0.0025,-0.01704 -0.0024,-0.0163 -0.0052,-0.03631 -0.0075,-0.05259 -9.71e-4,-0.0076 -0.0021,-0.01404 -0.0021,-0.01441 l -8.8e-5,-6.34e-4 1.94e-4,4.48e-4 c 1.87e-4,2.67e-4 6e-4,6.34e-4 9.69e-4,7.16e-4 6.01e-4,2.66e-4 0.0024,3.66e-4 0.0028,3.5e-5 3.89e-4,-2.66e-4 9.71e-4,-0.0014 9.71e-4,-0.0025 3.3e-5,-0.0014 -7e-6,-0.0018 9.69e-4,0.01164 0.0017,0.02218 0.0039,0.04658 0.006,0.06797 3.88e-4,0.0059 9.69e-4,0.01093 9.69e-4,0.01121 -2.9e-5,2.66e-4 -3.89e-4,-0.0019 -7.85e-4,-0.0047 z"
       id="path136" />
    <path
       style="fill:#59a52b;fill-opacity:1;fill-rule:nonzero;stroke:#000000;stroke-width:0.000299323;stroke-dasharray:none;stroke-opacity:1"
       d="m 23.832496,40.36559 c 1e-6,-0.106679 8.8e-5,-0.18131 2.92e-4,-0.188892 9.74e-4,-0.04394 0.0029,-0.08833 0.0074,-0.161411 l 0.0011,-0.01777 h 0.0029 0.0029 v 0.272291 0.272288 h -0.0073 -0.0073 z"
       id="path137" />
    <path
       style="fill:#59a52b;fill-opacity:1;fill-rule:nonzero;stroke:#000000;stroke-width:0.000299323;stroke-dasharray:none;stroke-opacity:1"
       d="m 23.846063,39.558673 c -0.0052,-0.05114 -0.01391,-0.09806 -0.02584,-0.140007 -0.0023,-0.0081 -0.0071,-0.02347 -0.01036,-0.03316 -0.0012,-0.0035 -0.0021,-0.0063 -0.0021,-0.0063 3.5e-5,-3.6e-5 0.0088,0.0183 0.01967,0.04074 l 0.01958,0.04081 -3.1e-5,0.05323 -3.5e-5,0.05323 z"
       id="path138" />
    <path
       style="fill:#59a52b;fill-opacity:1;fill-rule:nonzero;stroke:#000000;stroke-width:0.000299323;stroke-dasharray:none;stroke-opacity:1"
       d="m 24.848848,40.900853 c 1.87e-4,-0.153966 9.74e-4,-0.427412 0.0013,-0.434863 l 1.88e-4,-0.0037 h 0.0031 0.0031 l 1.88e-4,0.0019 c 1.87e-4,0.0021 0.0024,0.03765 0.0034,0.05448 0.004,0.06734 0.0064,0.122415 0.0077,0.17312 5.62e-4,0.0269 8.53e-4,0.04907 8.53e-4,0.148124 l 10e-7,0.105565 h -0.0096 -0.0096 l -3.2e-5,0.0089 c -2.1e-5,0.0048 -1.87e-4,0.01638 -2.91e-4,0.02555 -9.2e-5,0.0092 -1.89e-4,-0.02641 -9.2e-5,-0.07907 z"
       id="path139" />
    <path
       style="fill:#59a52b;fill-opacity:1;fill-rule:nonzero;stroke:#000000;stroke-width:0.000299323;stroke-dasharray:none;stroke-opacity:1"
       d="m 23.832492,40.743847 v -0.201626 h 0.0073 0.0073 v 0.201626 0.201631 h -0.0073 -0.0073 z"
       id="path140" />
  </g>
</svg>
