<?xml version="1.0" encoding="UTF-8" standalone="no"?>
<svg
   width="25.077562"
   height="35.353779"
   version="1.1"
   id="svg70"
   sodipodi:docname="logo-verdax.svg"
   inkscape:version="1.3.2 (091e20e, 2023-11-25, custom)"
   xmlns:inkscape="http://www.inkscape.org/namespaces/inkscape"
   xmlns:sodipodi="http://sodipodi.sourceforge.net/DTD/sodipodi-0.dtd"
   xmlns:xlink="http://www.w3.org/1999/xlink"
   xmlns="http://www.w3.org/2000/svg"
   xmlns:svg="http://www.w3.org/2000/svg">
  <sodipodi:namedview
     id="namedview70"
     pagecolor="#ffffff"
     bordercolor="#000000"
     borderopacity="0.25"
     inkscape:showpageshadow="2"
     inkscape:pageopacity="0.0"
     inkscape:pagecheckerboard="0"
     inkscape:deskcolor="#d1d1d1"
     inkscape:zoom="17.928103"
     inkscape:cx="8.7014225"
     inkscape:cy="11.518229"
     inkscape:window-width="2560"
     inkscape:window-height="1494"
     inkscape:window-x="-11"
     inkscape:window-y="-11"
     inkscape:window-maximized="1"
     inkscape:current-layer="svg70" />
  <defs
     id="defs5">
    <linearGradient
       xlink:href="#a"
       id="f"
       x1="286.86099"
       x2="751.14099"
       y1="475.85901"
       y2="475.85901"
       gradientTransform="matrix(0.02460143,0,0,0.03671776,-0.05444034,-0.12709982)"
       gradientUnits="userSpaceOnUse" />
    <linearGradient
       id="a">
      <stop
         offset="0"
         style="stop-color:#469622;stop-opacity:1"
         id="stop1" />
    </linearGradient>
    <linearGradient
       xlink:href="#b"
       id="e"
       x1="93.252998"
       x2="943.04102"
       y1="480.49799"
       y2="480.49799"
       gradientTransform="matrix(0.02460143,0,0,0.03671776,-0.05444034,-0.12709982)"
       gradientUnits="userSpaceOnUse" />
    <linearGradient
       id="b">
      <stop
         offset="0"
         style="stop-color:#81c43c;stop-opacity:1"
         id="stop2" />
      <stop
         offset="1"
         style="stop-color:#459522;stop-opacity:1"
         id="stop3" />
    </linearGradient>
    <linearGradient
       xlink:href="#c"
       id="d"
       x1="2.326"
       x2="1021.326"
       y1="484.88699"
       y2="484.88699"
       gradientTransform="matrix(0.02460143,0,0,0.03671776,-0.05444034,-0.12709982)"
       gradientUnits="userSpaceOnUse" />
    <linearGradient
       id="c">
      <stop
         offset="0"
         style="stop-color:#000;stop-opacity:1"
         id="stop4" />
      <stop
         offset="1"
         style="stop-color:#000;stop-opacity:0"
         id="stop5" />
    </linearGradient>
  </defs>
  <path
     d="M 0.0150287,0.0150287 V 35.33875 H 25.062533 V 0.0150287 H 0.0150287 M 12.046752,1.9304496 c 0.282055,-0.064069 0.60015,-0.00589 0.885861,-0.00589 1.115682,0 2.276808,0.299722 3.321978,0.9057931 0.507176,0.2945669 0.997638,0.596498 1.476087,0.972807 1.07912,0.8505619 2.038629,2.0612317 2.853975,3.4096114 0.622611,1.0280383 1.118816,2.2254527 1.529365,3.4508519 1.445791,4.315406 1.409751,9.574896 -0.0329,13.879991 -0.861834,2.571569 -2.237635,4.790393 -3.882955,6.291211 -0.823181,0.750409 -1.69755,1.338069 -2.63251,1.725427 -0.376074,0.156119 -0.767816,0.327705 -1.156947,0.391773 -0.77147,0.128136 -1.575849,0.297513 -2.361947,0.184105 C 10.972337,32.980009 9.9135869,32.685443 8.8971453,32.095572 8.2405805,31.714105 7.6299843,31.212604 7.0272227,30.663238 6.268809,29.971005 5.5782971,29.04901 4.9849376,28.06884 A 11.910022,16.791783 0 0 1 3.1688185,23.992771 C 1.8959158,19.971197 1.9246436,14.967242 3.1933677,10.958187 A 11.422172,16.103971 0 0 1 6.3633495,5.0948342 9.914746,13.97867 0 0 1 10.348678,2.3038131 C 10.914354,2.1167632 11.480032,2.0600592 12.046752,1.9304496 M 7.5443232,16.171285 6.1664335,15.320722 5.6989539,14.953986 5.4283904,14.739689 c -0.1405051,0.66204 -0.271086,1.279894 -0.271086,1.982436 0,0.648047 0.039697,1.24749 0.1561748,1.872708 0.2522822,1.355008 0.8994411,2.2608 1.640096,3.059813 1.0336786,1.1142 2.2130856,1.846935 3.2723568,2.901485 0.549484,0.545683 1.082777,1.125982 1.550257,1.823368 0.150429,0.224607 0.301381,0.450687 0.434573,0.697387 0.06895,0.128137 0.121702,0.284257 0.229821,0.330652 v -5.470843 c 0,-0.211353 0.03291,-0.49561 -0.0084,-0.698124 C 12.344436,20.809976 12.141255,20.35487 11.96471,19.990344 11.479472,18.98808 10.787916,18.230306 10.053528,17.683149 A 11.389265,16.057576 0 0 0 9.1927794,17.095488 c -0.086184,-0.05155 -0.2595951,-0.09795 -0.3076488,-0.226079 -0.038129,-0.101626 0.00527,-0.227555 0.01254,-0.330651 0.00992,-0.156123 0,-0.320343 0,-0.4772 0.2768315,0.0324 0.6116405,0.332125 0.8607891,0.508128 0.8487763,0.59797 1.6139793,1.275475 2.2882993,2.282893 0.169232,0.252591 0.31496,0.55084 0.451288,0.843934 0.07417,0.159804 0.128491,0.375573 0.237657,0.477199 0.227211,-0.677503 0.586568,-1.259274 0.959508,-1.762247 1.309466,-1.763718 3.02582,-2.391882 4.625699,-3.353643 0.437705,-0.262902 0.885861,-0.538322 1.279691,-0.930095 0.164532,-0.164221 0.377117,-0.475726 0.590226,-0.343171 0.246014,0.153175 0.360402,0.7482 0.42674,1.10168 0.219375,1.178268 0.285711,2.319715 0.106543,3.525229 -0.288323,1.936777 -1.226937,3.302832 -2.329563,4.308042 -1.281781,1.16943 -2.71347,2.109097 -3.862582,3.58635 a 7.7612064,10.942424 0 0 0 -1.21388,1.946352 c -0.104462,0.216505 -0.246538,0.478671 -0.303471,0.734206 -0.06373,0.284995 -0.0084,0.72758 -0.0084,1.02804 v 2.277001 c 3.728868,0 7.16628,-3.685032 8.730638,-8.629336 C 22.6645,20.730443 22.839479,17.326723 22.37252,14.18885 22.042981,11.975917 21.346724,9.9286763 20.396096,8.1671666 20.157916,7.7260526 19.907199,7.2613734 19.625145,6.8813822 18.714736,5.6552476 17.747391,4.6883318 16.6479,3.913621 15.501401,3.1057715 14.229542,2.8097317 12.98171,2.7324079 11.934453,2.6676032 10.834962,2.8458162 9.8321011,3.3443706 9.2215046,3.6485108 8.626055,3.9821078 8.0609008,4.4276402 7.2304067,5.0815787 6.4923635,5.9446596 5.7971508,6.8813822 5.3234033,7.5198557 4.9306158,8.3166592 4.5592439,9.0847423 2.2604977,13.834632 2.2510959,20.569168 4.3456136,25.461187 a 10.14248,14.299748 0 0 0 5.8557704,6.364853 c 0.534859,0.220924 1.142843,0.428596 1.69755,0.428596 0.132149,0 0.260118,0.03682 0.393834,0.03682 0.04284,0 0.106554,0.01694 0.135803,-0.04345 0.03656,-0.07585 0.01201,-0.270265 0.01201,-0.360843 v -2.27553 c 0,-0.17674 0.02926,-0.419758 -0.0084,-0.587662 -0.04488,-0.201045 -0.159268,-0.412396 -0.237617,-0.587663 -0.226168,-0.506651 -0.484197,-0.94261 -0.75476,-1.395506 -0.458071,-0.765875 -1.0718,-1.388146 -1.6568025,-1.921313 C 8.8882617,24.303539 7.9721063,23.573013 7.0768435,22.757062 5.9789193,21.755535 5.0434379,20.435877 4.7227312,18.522665 a 4.8811138,6.8818181 0 0 1 0.090362,-3.635692 c 0.083049,-0.371154 0.1833357,-0.996372 0.4674797,-1.125982 0.196916,-0.08985 0.3906979,0.205462 0.5411272,0.354954 0.3656265,0.363789 0.7751282,0.631109 1.1809736,0.875598 0.1143891,0.06849 0.2282554,0.141393 0.3447331,0.20178 0.064245,0.03314 0.1478177,0.05155 0.1927383,0.134764 0.083572,0.154648 0.038651,0.66572 0.00416,0.843934 m 2.8294439,-5.361117 c 0.04022,-0.152439 0.122223,-0.243018 0.192736,-0.366735 0.192214,-0.338752 0.412632,-0.6517299 0.644022,-0.9300955 0.358313,-0.4315405 0.709838,-0.857926 1.107326,-1.2121426 0.104462,-0.092789 0.268996,-0.3129774 0.393309,-0.3181322 0.07207,-0.00294 0.138416,0.083214 0.196918,0.1347643 0.132148,0.1178268 0.264817,0.2268164 0.393831,0.354953 0.475315,0.4735163 0.924513,1.0000545 1.328269,1.603181 0.11752,0.176004 0.351523,0.419757 0.405845,0.661301 0.01254,0.0545 -0.0063,0.103101 -0.03656,0.134764 -0.08357,0.08469 -0.182815,0.13182 -0.270565,0.20767 -0.04178,0.03682 -0.09716,0.116356 -0.147817,0.116356 -0.05224,0 -0.08985,-0.07955 -0.123263,-0.128139 L 14.187239,10.664357 A 8.7348177,12.315103 0 0 0 13.129532,9.3307055 C 13.03551,9.22908 12.808826,8.9065293 12.686602,8.957342 12.556021,9.0111001 12.426486,9.2047784 12.317319,9.3181864 11.980943,9.6665119 11.6477,10.047976 11.357811,10.480989 c -0.114389,0.170849 -0.23609,0.33507 -0.344733,0.51402 -0.04179,0.06922 -0.07835,0.198095 -0.147295,0.20767 -0.04597,0.0073 -0.08566,-0.05155 -0.122746,-0.08544 C 10.621331,11.008997 10.491273,10.9221 10.37375,10.811638 m 2.312848,3.781501 h 0.04909 c 0.06059,-0.229025 0.187515,-0.432276 0.290934,-0.623744 0.170277,-0.314451 0.345778,-0.611962 0.545828,-0.881493 0.929214,-1.251907 2.034451,-2.271846 3.296906,-2.533275 0.355704,-0.07365 0.695736,-0.147283 1.057708,-0.147283 0.133713,0 0.30608,-0.04566 0.41838,0.08544 0.193781,0.226079 0.06373,0.592079 -0.03291,0.832152 -0.277354,0.69444 -0.50143,1.41981 -0.647681,2.203358 -0.05432,0.291623 -0.111776,0.616383 -0.131103,0.918314 -0.0074,0.111935 0.0036,0.299722 -0.03709,0.397663 -0.03134,0.07512 -0.107601,0.101628 -0.159832,0.128875 -0.131624,0.06776 -0.261162,0.145075 -0.393832,0.207669 l -0.02455,-0.03682 0.0491,-0.660568 0.156174,-1.138501 0.389132,-1.578879 0.193259,-0.550839 c -0.37085,0 -0.723418,0.125191 -1.082777,0.245226 -1.088522,0.360844 -2.13108,1.309351 -2.879047,2.545795 -0.41107,0.679713 -0.686333,1.441905 -1.008084,2.202624 h -0.04962 c -0.06059,-0.244491 -0.172368,-0.472043 -0.26273,-0.697387 a 5.9926185,8.4489139 0 0 0 -0.623128,-1.285052 c -1.006518,-1.690076 -2.5055874,-3.011209 -4.059499,-3.011209 0.059541,0.338752 0.2225095,0.662774 0.3113047,0.991218 0.2063179,0.764401 0.3734615,1.604652 0.4267378,2.423548 0.038649,0.597971 0.063725,1.27032 0.02455,1.872709 -0.024021,0.368209 -0.049098,0.765138 -0.02455,1.138501 0.064774,0.995637 0.2742199,1.974334 0.6231319,2.827842 0.4199491,1.025092 1.0587496,1.902902 1.7879136,2.41692 0.233479,0.164222 0.486805,0.303406 0.738044,0.397665 0.10237,0.0383 0.307125,0.04419 0.389653,0.140658 0.0444,0.05155 0.02873,0.165692 0.02873,0.238597 v 0.624484 C 11.611133,24.235786 11.16089,24.020019 10.767058,23.742389 10.306891,23.418366 9.871796,23.04132 9.4878884,22.524355 8.7064933,21.471278 8.1946158,20.05294 7.9950882,18.522665 7.8122752,17.11979 8.0629908,15.702187 7.880177,14.299313 A 6.9280999,9.7678371 0 0 0 7.2690586,11.692396 C 7.1593706,11.38089 6.8684364,10.95966 7.03558,10.590715 c 0.1044652,-0.229761 0.2726531,-0.183368 0.4345734,-0.183368 0.3713719,0 0.7181949,0.07144 1.0827768,0.147283 1.2342506,0.255538 2.3373978,1.2335 3.2478078,2.459634 0.248626,0.33507 0.468524,0.703279 0.672752,1.101681 0.0747,0.147284 0.178636,0.301195 0.213108,0.477197 m 0.319663,12.815132 c 0.124316,-0.106781 0.199527,-0.318869 0.295113,-0.477198 0.144162,-0.237864 0.289889,-0.472044 0.442929,-0.698124 0.396966,-0.583979 0.865491,-1.080323 1.328791,-1.542057 0.891608,-0.886646 1.840669,-1.59508 2.755781,-2.411031 0.665963,-0.59355 1.351774,-1.262954 1.812462,-2.215141 0.313394,-0.647311 0.474793,-1.39404 0.582392,-2.16654 0.06267,-0.447006 0.07052,-0.907265 0.04075,-1.358689 -0.0397,-0.613437 -0.08148,-1.235709 -0.270562,-1.799069 -0.182292,0.100145 -0.342122,0.30414 -0.51658,0.434488 -0.398531,0.297512 -0.811691,0.55894 -1.23007,0.80122 -1.899691,1.102417 -4.361402,1.979491 -5.20809,5.116627 -0.05485,0.203988 -0.0329,0.444796 -0.0329,0.660567 v 5.654211 m 4.502429,-10.354027 c 0,2.597344 -0.880116,5.174805 -2.460144,6.41935 -0.373983,0.294567 -0.766248,0.524328 -1.180973,0.678975 -0.130059,0.04861 -0.284145,0.128138 -0.417859,0.128138 -0.124317,0 -0.07417,-0.484563 -0.07417,-0.617854 0,-0.06039 -0.01306,-0.162012 0.01204,-0.213561 0.04701,-0.09868 0.25594,-0.100145 0.332198,-0.128874 A 4.0098782,5.6534745 0 0 0 14.48239,22.92202 c 0.704093,-0.496344 1.282305,-1.253381 1.739339,-2.197468 0.304514,-0.629637 0.5265,-1.406558 0.639324,-2.166541 0.04544,-0.304876 0.05902,-0.614907 0.09872,-0.917575 0.01091,-0.08617 -0.01566,-0.247436 0.02038,-0.318131 0.02611,-0.05229 0.09663,-0.06628 0.13528,-0.08617 0.128493,-0.06333 0.259074,-0.167166 0.393832,-0.183369 z"
     style="mix-blend-mode:normal;fill:#0c2436;stroke:url(#d);stroke-width:0.0300574;stroke-opacity:1"
     id="path5" />
  <path
     d="M 12.006535,33.094887 C 10.147062,32.750245 9.1076376,32.314284 7.9360659,31.387136 6.5221359,30.269255 5.5594935,29.097613 4.6114763,27.33905 2.6015751,23.613517 1.8447282,19.058778 2.4647263,14.423767 2.7859553,12.023047 3.4696769,9.8520889 4.5409626,7.8357788 4.9118123,7.1376553 5.7736462,5.8518709 6.2442598,5.2929304 7.285773,4.0579589 8.4771937,3.1330189 9.729725,2.5865973 10.258839,2.3553624 10.66834,2.2390085 11.539054,2.0718418 l 0.756325,-0.1450742 0.715583,0.039031 c 1.386769,0.075851 2.250692,0.3299147 3.388314,0.9985816 1.393036,0.8188959 2.242335,1.5803512 3.239972,2.9044293 0.716629,0.9499779 1.28596,1.9235215 1.755007,2.9986905 0.934959,2.1415 1.464073,4.260909 1.688674,6.767673 0.06163,0.690759 0.07052,2.926522 0.01409,3.612126 -0.161398,1.954452 -0.498296,3.651893 -1.051961,5.301466 -0.497773,1.480936 -1.093743,2.698969 -1.936774,3.956771 -0.869669,1.298302 -1.746128,2.238707 -2.806967,3.014156 -1.444749,1.054548 -2.876436,1.552366 -4.55205,1.581822 -0.35518,0.0066 -0.689467,0.0037 -0.742744,-0.0066 z m 0.414723,-0.796067 c 0.05119,-0.04125 0.05275,-0.103098 0.05275,-1.642947 v -1.60097 l -0.06581,-0.193678 C 12.232699,28.344997 11.491,26.990726 11.109704,26.489225 10.562309,25.769746 10.151763,25.371344 8.4035455,23.865371 A 73.026061,102.95848 0 0 1 7.0287899,22.65912 C 5.8603519,21.564804 5.1249202,20.298166 4.8188387,18.851106 4.5404401,17.535129 4.5561099,16.158765 4.8658475,14.78682 c 0.1190898,-0.526538 0.1838581,-0.710642 0.308171,-0.874127 0.1493846,-0.19515 0.2439252,-0.163484 0.60694,0.201778 0.3269745,0.329179 0.7134941,0.616381 1.3021526,0.966179 0.2193761,0.130347 0.4142032,0.255538 0.4335291,0.27763 0.040221,0.04714 0.047011,0.592815 0.00888,0.683395 -0.020373,0.04714 -0.1472954,-0.01768 -0.6805879,-0.346852 A 15.066423,21.241953 0 0 1 5.8075972,14.987861 C 5.5981455,14.822905 5.4200332,14.696242 5.4127206,14.708023 a 4.090316,5.7668827 0 0 0 -0.1075992,0.500764 c -0.145206,0.745255 -0.1828134,1.170903 -0.1650543,1.842516 0.053798,1.9979 0.4935958,3.180587 1.6724802,4.494354 0.4481536,0.499291 0.856088,0.872654 1.9070034,1.744572 1.0305447,0.854244 1.3841573,1.176795 1.9341643,1.762983 0.513444,0.546422 0.979879,1.145127 1.289095,1.65252 0.36876,0.603861 0.466435,0.751145 0.500909,0.751145 0.02351,0 0.02977,-0.792385 0.02402,-3.129773 l -0.0073,-3.129772 -0.101857,-0.31887 C 12.020074,19.820968 11.425147,18.876145 10.6098,18.103643 10.334535,17.842952 9.5348581,17.250872 9.1817667,17.046885 c -0.1410275,-0.081 -0.2616841,-0.162013 -0.2684745,-0.178213 -0.00677,-0.01694 -0.00527,-0.192205 0.00413,-0.390302 l 0.017235,-0.359371 0.095585,0.02284 c 0.052235,0.01252 0.3076486,0.173793 0.5661994,0.357898 1.5277964,1.086951 2.3849304,2.067859 2.9380704,3.363217 0.05328,0.123716 0.121179,0.257746 0.151473,0.298249 0.05381,0.07144 0.05746,0.06702 0.156175,-0.184104 0.169755,-0.43375 0.354657,-0.770294 0.694692,-1.266638 0.505607,-0.736417 0.989802,-1.240127 1.71531,-1.782129 0.484716,-0.363055 0.844073,-0.582506 2.035494,-1.246019 1.500113,-0.83436 1.845369,-1.064122 2.37814,-1.581087 0.252803,-0.245963 0.320184,-0.293094 0.417858,-0.293094 0.221465,0 0.383907,0.373363 0.528591,1.215089 0.141028,0.818896 0.177591,1.229816 0.177591,1.966234 0,0.792383 -0.04857,1.28431 -0.191694,1.929412 -0.19326,0.87118 -0.500385,1.590661 -1.000248,2.341806 -0.548441,0.824788 -0.913544,1.194469 -2.420448,2.450061 -1.854249,1.544265 -2.420971,2.136347 -3.218558,3.361007 -0.369804,0.567042 -0.820571,1.425703 -0.924512,1.760037 -0.06425,0.203988 -0.06476,0.21356 -0.06476,1.860926 v 1.655465 l 0.336898,-0.02724 c 1.014875,-0.081 1.847981,-0.329915 2.758392,-0.822577 2.817936,-1.524384 5.201297,-5.19616 6.113797,-9.418776 0.690511,-3.198261 0.605895,-6.933367 -0.227211,-10.032211 C 21.356125,9.8358877 20.344386,7.7024873 19.240715,6.3327514 18.127121,4.9527058 16.725204,3.7729654 15.637727,3.3023948 14.681353,2.8877919 13.723411,2.6992692 12.570643,2.6985328 c -1.156947,0 -2.012513,0.2150338 -3.0529809,0.7658738 C 8.1282812,4.1986145 7.2560006,4.9556513 6.1011431,6.4277493 5.5197969,7.1693213 5.0690317,7.9300403 4.5132794,9.1083076 3.5469807,11.158493 2.9833936,13.473052 2.820951,16.065978 c -0.036563,0.580296 -0.036563,2.161384 0,2.770401 0.337421,5.63359 2.7139933,10.359916 6.2699725,12.470486 0.9589855,0.569251 1.9221505,0.916842 2.7437655,0.990483 0.523891,0.04714 0.529114,0.04714 0.586569,0.0015 z m 0.783486,-5.117363 c 0.486282,-0.898428 1.004428,-1.573723 1.854771,-2.419129 0.494118,-0.491191 0.785052,-0.751147 1.761797,-1.575934 1.646365,-1.389619 2.156674,-1.914685 2.627288,-2.706333 0.463301,-0.778393 0.78453,-1.964025 0.850865,-3.141556 0.04961,-0.888854 -0.176546,-2.657729 -0.334808,-2.612807 -0.02769,0.0073 -0.151475,0.105307 -0.275266,0.216507 -0.428827,0.385146 -1.052481,0.783547 -2.280465,1.453687 -1.112548,0.60828 -1.365877,0.762928 -1.950355,1.188576 -1.212837,0.883702 -1.924763,1.85209 -2.358813,3.206362 l -0.116479,0.365262 -0.008,3.097371 c -0.0041,1.703332 -9.91e-4,3.122408 0.0068,3.151866 0.02089,0.08322 0.09872,0.0044 0.222509,-0.223872 z"
     style="fill:url(#e);fill-opacity:1;fill-rule:nonzero;stroke:#000000;stroke-width:0.0336042;stroke-dasharray:none;stroke-opacity:1"
     id="path6" />
  <path
     d="M 11.910426,24.226216 C 11.7203,24.189397 11.246553,23.994244 11.022475,23.860217 A 6.1545388,8.6772033 0 0 1 9.9788729,23.029537 C 9.0110077,22.052311 8.3382554,20.542656 8.0410529,18.68173 7.989343,18.357707 7.9820306,18.141936 7.963749,16.415038 7.9454673,14.664575 7.9386772,14.47237 7.882789,14.097533 7.7454177,13.168911 7.4325459,11.971497 7.1703395,11.370581 7.0230442,11.03183 6.9911825,10.863926 7.0408033,10.685713 c 0.0585,-0.207668 0.1243127,-0.237862 0.4962075,-0.228289 0.6179085,0.01399 1.3293132,0.183369 1.8568602,0.440377 1.096879,0.535375 2.256437,1.748991 2.997092,3.137137 0.124836,0.233444 0.239747,0.467626 0.255939,0.519911 0.0423,0.139919 0.08879,0.116355 0.167143,-0.08322 0.192216,-0.488981 0.782964,-1.406557 1.262978,-1.961079 0.782964,-0.905057 1.512651,-1.46768 2.282555,-1.762983 0.516578,-0.19736 1.6589,-0.368946 1.87253,-0.281311 0.212587,0.08763 0.23609,0.338751 0.07207,0.783548 -0.252283,0.684867 -0.472702,1.396983 -0.576124,1.860925 -0.130579,0.583243 -0.219375,1.156911 -0.219375,1.421286 -9.91e-4,0.260692 -0.05432,0.338752 -0.327497,0.481616 l -0.230867,0.120773 0.01932,-0.314451 c 0.03761,-0.628899 0.177069,-1.456633 0.385997,-2.296147 0.110737,-0.444798 0.239748,-0.910949 0.286234,-1.034666 0.122223,-0.325497 0.119087,-0.335071 -0.09976,-0.30635 -0.27161,0.03609 -0.746401,0.169374 -1.10367,0.310032 -0.940183,0.370417 -1.80724,1.123772 -2.520733,2.190841 -0.329064,0.491925 -0.547395,0.922731 -0.922947,1.820423 l -0.279965,0.67014 -0.0961,-0.257747 A 9.5465081,13.459497 0 0 0 11.959525,14.444386 C 11.733359,14.027574 11.224094,13.294101 10.910699,12.933994 10.226456,12.146763 9.3473849,11.526701 8.6098641,11.308722 8.428095,11.254954 7.8801778,11.161438 7.7501195,11.160701 c -0.059549,0 -0.039176,0.0928 0.1457279,0.659093 0.1969162,0.605336 0.3953985,1.468416 0.4789712,2.084797 0.096629,0.712116 0.1201346,1.264429 0.097152,2.346226 -0.025598,1.222452 -0.021933,1.441168 0.028726,1.888173 0.076785,0.673085 0.2089303,1.278421 0.4131588,1.889646 0.4011443,1.201834 1.1381416,2.293203 1.9378196,2.869818 0.259074,0.187051 0.767816,0.43596 0.96891,0.474252 0.193261,0.03682 0.213631,0.08617 0.213631,0.515492 0,0.20178 -0.0094,0.363791 -0.02089,0.360845 a 2.5541624,3.6010799 0 0 0 -0.102893,-0.02209 z"
     style="fill:url(#f);fill-opacity:1;fill-rule:nonzero;stroke:#000000;stroke-width:0.0375657;stroke-dasharray:none;stroke-opacity:1"
     id="path7" />
  <path
     d="m 10.650059,10.998691 a 1.9524455,2.7527273 0 0 1 -0.214153,-0.19515 c -0.03343,-0.05007 0.306082,-0.618591 0.602762,-1.0088925 0.55523,-0.7312623 1.523618,-1.7534094 1.660466,-1.7534094 0.137372,0 0.874893,0.7194797 1.366922,1.3329151 0.324884,0.4050294 0.832061,1.1156718 0.890562,1.2474898 0.02612,0.05893 0.04807,0.131083 0.04807,0.159068 0,0.03903 -0.229822,0.243753 -0.419425,0.372626 -0.01091,0.0073 -0.203706,-0.250382 -0.427262,-0.574406 C 13.751104,9.9920082 13.009929,9.092843 12.82137,8.958815 12.72735,8.892538 12.715862,8.892538 12.624975,8.956605 c -0.234523,0.1671667 -0.97361,1.045713 -1.359608,1.616435 -0.218853,0.323287 -0.404278,0.586188 -0.412635,0.584715 a 2.6220643,3.6968141 0 0 1 -0.202666,-0.159062 z m 2.757346,13.146519 c -0.04075,-0.161276 -0.0026,-0.664249 0.05381,-0.706961 a 0.78870863,1.1119898 0 0 1 0.181769,-0.06333 c 0.205273,-0.04345 0.663352,-0.28131 0.940707,-0.488981 0.758935,-0.568514 1.517871,-1.653255 1.892899,-2.70486 a 4.6398004,6.5415936 0 0 0 0.48106,-2.309403 c 0.01829,-0.248173 0.0371,-0.471307 0.04178,-0.495608 0.0074,-0.04271 0.38652,-0.263639 0.450766,-0.263639 0.03813,0 0.03813,0.259219 5.22e-4,0.771767 a 5.6327376,7.9415226 0 0 1 -0.825793,3.397827 c -0.261163,0.586189 -0.808036,1.411713 -1.178884,1.779184 a 5.2159233,7.3538616 0 0 1 -1.640097,1.071487 5.1945081,7.3236685 0 0 1 -0.344211,0.122247 c -0.01409,0 -0.03865,-0.04934 -0.05432,-0.110464 z"
     style="fill:#59a52b;fill-opacity:1;fill-rule:nonzero;stroke:#000000;stroke-width:0.0375657;stroke-dasharray:none;stroke-opacity:1"
     id="path8" />
  <path
     d="M 9.759498,16.593252 9.579818,16.464379 C 9.3395489,16.295002 9.1039815,16.145511 9.0418247,16.124155 a 4.3540893,6.1387734 0 0 0 -0.1201346,-0.02946 4.3828172,6.1792763 0 0 0 -0.00784,0.160539 1.3742334,1.9375135 0 0 1 -0.00215,-0.173059 l 0.012013,0.0022 c 0.1002871,0.01841 0.2157206,0.06996 0.3551805,0.159064 0.07052,0.04492 0.1358041,0.09131 0.2376566,0.167904 a 762.14532,1074.5387 0 0 1 0.2428819,0.181896 z m -0.8660128,0.258483 a 0.13162555,0.18557712 0 0 1 -0.00888,-0.0383 0.23504561,0.33138772 0 0 1 -5.226e-4,-0.07512 c 0.00157,-0.01914 0.00677,-0.05966 0.010451,-0.08248 l 0.00265,-0.01473 v 0.01178 a 1.5617476,2.2018872 0 0 0 0,0.207669 z m -0.4136806,-0.18116 0.00677,-0.353479 c 0.00627,-0.307087 0.00784,-0.446269 0.00888,-0.659831 a 8.7175802,12.290802 0 0 0 -0.00784,-0.653201 7.4431114,10.493944 0 0 1 0.022981,0.835832 5.0257976,7.0858058 0 0 1 -0.031343,0.830679 z"
     style="fill:#59a52b;fill-opacity:1;fill-rule:nonzero;stroke:#000000;stroke-width:0.00117393;stroke-dasharray:none;stroke-opacity:1"
     id="path9" />
  <path
     d="m 7.9397221,17.549858 a 7.0043593,9.8753538 0 0 1 -0.00211,-0.49561 l 0.00467,-0.279838 0.00211,-0.110462 v -0.0051 h 0.00629 v 0.01841 l 0.00102,0.09868 0.00784,0.618591 0.00263,0.155384 v 0.0051 h -0.022462 z"
     style="fill:#59a52b;fill-opacity:1;fill-rule:nonzero;stroke:#000000;stroke-width:0.000415049;stroke-dasharray:none;stroke-opacity:1"
     id="path10" />
  <path
     d="m 7.9809858,18.285538 -0.00262,-0.02725 a 4.7426981,6.6866676 0 0 1 -0.036565,-0.616375 l -0.00153,-0.08469 c 0,-0.0015 5.228e-4,-0.0015 0.010451,-0.0015 h 0.011499 v 0.0015 l 0.00416,0.20988 c 0.00416,0.217243 0.010451,0.389564 0.016196,0.500763 0.00102,0.01914 0.00102,0.01914 0,0.01914 -5.22e-4,0 -0.00102,0 -0.00153,-0.0015 z M 7.5208183,16.136672 7.3098001,16.006327 7.1134062,15.884818 v -0.0022 c 0,-0.0015 0,-0.0015 0.018804,0.0095 0.1979604,0.118563 0.2966799,0.169375 0.3499569,0.181895 a 0.13580413,0.19146846 0 0 0 0.028727,0.0015 0.03656265,0.0515492 0 0 0 0.021935,-0.01473 c 0.017233,-0.02578 0.028208,-0.119299 0.03134,-0.263638 a 1.3789343,1.9441413 0 0 0 -0.00992,-0.324749 v -0.0015 h 0.010451 l 0.00102,0.0044 c 0.00467,0.0383 0.00784,0.0869 0.00888,0.142129 v 0.112672 a 1.7523957,2.4706796 0 0 1 -0.039176,0.416076 l -0.015145,-0.0095 z"
     style="fill:#59a52b;fill-opacity:1;fill-rule:nonzero;stroke:#000000;stroke-width:0.000586963;stroke-dasharray:none;stroke-opacity:1"
     id="path11" />
  <path
     d="m 7.5552917,15.470216 c -0.00102,0 -0.00102,0 -0.00153,-0.0015 l -0.00102,-0.01031 a 0.20997408,0.29603968 0 0 0 -0.020377,-0.104572 c -0.00416,-0.0095 -0.00837,-0.01473 -0.021935,-0.02504 a 4.1477715,5.8478885 0 0 0 -0.2434027,-0.160538 2.5238675,3.5583676 0 0 0 0.1237912,0.06333 c 0.027163,0.01179 0.040739,0.01841 0.053802,0.02578 0.033954,0.01841 0.057453,0.0383 0.075215,0.06407 0.01045,0.01474 0.017233,0.02946 0.024023,0.04861 a 0.26899664,0.37925483 0 0 1 0.019847,0.08837 l 0.00153,0.01179 z"
     style="fill:#59a52b;fill-opacity:1;fill-rule:nonzero;stroke:#000000;stroke-width:0.000415049;stroke-dasharray:none;stroke-opacity:1"
     id="path12" />
  <path
     d="M 6.896642,15.752263 6.7133064,15.638855 v -0.0044 l 0.010451,0.0073 0.1075993,0.06628 c 0.080438,0.05081 0.1890812,0.117825 0.2418359,0.148757 l 0.00731,0.0044 v 0.0022 a 0.00522324,0.00736418 0 0 1 0,0.0015 L 6.8966427,15.751514 Z"
     style="fill:#59a52b;fill-opacity:1;fill-rule:nonzero;stroke:#000000;stroke-width:0.000207524;stroke-dasharray:none;stroke-opacity:1"
     id="path13" />
  <path
     d="M 6.4422204,15.470951 6.1716568,15.303785 5.9324326,15.115998 5.691119,14.926739 c -0.00157,-0.0015 -0.00157,-0.0022 -0.00157,-0.0044 v -0.0022 l 0.018281,0.01399 0.091407,0.07071 c 0.032384,0.02578 0.054844,0.04271 0.089318,0.06849 a 16.028545,22.598433 0 0 0 0.8242267,0.561149 v 0.0022 c 0,0.0015 -0.02455,-0.01399 -0.2705638,-0.165696 z"
     style="fill:#59a52b;fill-opacity:1;fill-rule:nonzero;stroke:#000000;stroke-width:0.000586963;stroke-dasharray:none;stroke-opacity:1"
     id="path14" />
  <path
     d="m 4.9598659,14.31404 a 1.8312665,2.5818785 0 0 1 0.049098,-0.149492 c 0.052232,-0.140655 0.1081202,-0.243019 0.1723664,-0.310032 a 0.32958619,0.46467923 0 0 1 0.1347597,-0.08764 0.24810372,0.34979815 0 0 1 0.064245,-0.0029 0.45076526,0.635528 0 0 1 0.2010946,0.117827 l 0.00835,0.0073 v 0.01914 l -0.00731,-0.0073 a 0.7401325,1.0435032 0 0 0 -0.1619204,-0.110462 0.2104964,0.29677611 0 0 0 -0.1707998,0.01768 0.37763995,0.5324296 0 0 0 -0.072602,0.07364 0.73908785,1.0420303 0 0 0 -0.071035,0.102362 0.86078923,1.2136155 0 0 0 -0.1331926,0.321078 l -0.00314,0.01031 h -0.010451 z m 4.2135852,2.751256 a 2.0187807,2.8462523 0 0 0 -0.055364,-0.02725 1.5471225,2.1812675 0 0 1 -0.084094,-0.04198 0.3656265,0.515492 0 0 1 -0.1185672,-0.09868 l 0.00314,0.0022 c 0.032384,0.02799 0.1352814,0.09502 0.2449701,0.159066 l 0.016715,0.0095 z"
     style="fill:#59a52b;fill-opacity:1;fill-rule:nonzero;stroke:#000000;stroke-width:0.000415049;stroke-dasharray:none;stroke-opacity:1"
     id="path15" />
  <path
     d="M 10.578501,17.239827 A 13.392378,18.881736 0 0 0 9.776212,16.60577 v -0.0029 l 0.1227453,0.08764 a 10.00093,14.100179 0 0 1 0.6581277,0.515494 l 0.03134,0.02726 v 0.01473 l -0.01045,-0.0081 z"
     style="fill:#59a52b;fill-opacity:1;fill-rule:nonzero;stroke:#000000;stroke-width:0.000586963;stroke-dasharray:none;stroke-opacity:1"
     id="path16" />
  <path
     d="m 11.776189,18.503517 a 5.7283227,8.0762869 0 0 0 -0.395399,-0.483089 7.8923095,11.127262 0 0 0 -0.752146,-0.73789 l -0.01045,-0.0095 -5.23e-4,-0.0073 v -0.0073 l 0.02351,0.02062 a 7.1391187,10.06535 0 0 1 1.147023,1.234234 l 0.0022,0.0029 h -0.0026 c -0.0022,0 -0.0032,-0.0015 -0.01149,-0.01252 z m 0.758935,1.319659 A 4.4820587,6.3191955 0 0 0 11.904159,18.68173 l -0.01567,-0.02357 v -0.0081 l 0.0084,0.01179 c 0.07207,0.100888 0.150429,0.216506 0.193782,0.284993 0.09663,0.154647 0.192215,0.332124 0.306604,0.569986 0.04022,0.08396 0.09141,0.192205 0.103939,0.220926 a 1.2399962,1.7482544 0 0 1 0.03343,0.08543 z"
     style="fill:#59a52b;fill-opacity:1;fill-rule:nonzero;stroke:#000000;stroke-width:0.000830095;stroke-dasharray:none;stroke-opacity:1"
     id="path17" />
  <path
     d="m 12.902841,19.776046 0.01829,-0.04271 c 0.0585,-0.131081 0.12379,-0.263636 0.194827,-0.396191 l 0.0052,-0.0095 h 0.0089 l -0.0022,0.0029 a 3.233183,4.5584222 0 0 0 -0.218332,0.442587 l -9.9e-4,0.0029 z"
     style="fill:#59a52b;fill-opacity:1;fill-rule:nonzero;stroke:#000000;stroke-width:0.000207524;stroke-dasharray:none;stroke-opacity:1"
     id="path18" />
  <path
     d="m 13.123261,19.323886 0.0084,-0.01473 a 4.7557563,6.705078 0 0 1 0.384431,-0.622273 c 0.09559,-0.13771 0.187513,-0.263638 0.282055,-0.385147 l 0.01566,-0.02062 h 0.01464 l -0.0068,0.0088 c -0.08671,0.111935 -0.177589,0.235653 -0.266908,0.365262 -0.06633,0.09575 -0.159307,0.234918 -0.214675,0.321814 a 4.7285953,6.6667844 0 0 0 -0.204751,0.339489 l -0.0063,0.01105 h -0.0078 z"
     style="fill:#59a52b;fill-opacity:1;fill-rule:nonzero;stroke:#000000;stroke-width:0.000586963;stroke-dasharray:none;stroke-opacity:1"
     id="path19" />
  <path
     d="m 13.387035,23.629717 c -0.0036,-0.09868 -0.0022,-0.131081 0.0068,-0.159066 0.01204,-0.03755 0.05015,-0.06482 0.121182,-0.08617 0.01724,-0.0051 0.0282,-0.0073 0.01881,-0.0044 l -0.01984,0.0073 a 0.30921556,0.43595894 0 0 0 -0.0585,0.02799 c -0.01358,0.01031 -0.02403,0.0302 -0.03447,0.06628 a 0.61634182,0.86897224 0 0 0 -0.02977,0.169376 l -0.0026,0.02062 z"
     style="fill:#59a52b;fill-opacity:1;fill-rule:nonzero;stroke:#000000;stroke-width:0.00117393;stroke-dasharray:none;stroke-opacity:1"
     id="path20" />
  <path
     d="m 13.433522,24.257882 a 0.04021891,0.05670413 0 0 1 -0.01046,-0.0073 0.08513873,0.120036 0 0 1 -0.02769,-0.06039 0.31391646,0.44258671 0 0 1 -0.01515,-0.116354 0.27265291,0.38440975 0 0 0 0.04438,0.166431 0.11386653,0.16053894 0 0 0 0.0089,0.01547 l 0.0022,0.0037 -0.0026,-0.0015 z"
     style="fill:#59a52b;fill-opacity:1;fill-rule:nonzero;stroke:#000000;stroke-width:0.000207524;stroke-dasharray:none;stroke-opacity:1"
     id="path21" />
  <path
     d="m 13.894211,24.12238 v -7.36e-4 l 0.01409,-0.0059 a 5.5068576,7.764046 0 0 0 0.719762,-0.37259 l 5.22e-4,0.0029 v 0.0044 l -0.0016,7.37e-4 -0.01566,0.0095 c -0.229822,0.145074 -0.466434,0.265111 -0.704092,0.356426 l -0.01254,0.0051 z"
     style="fill:#59a52b;fill-opacity:1;fill-rule:nonzero;stroke:#000000;stroke-width:0.000415049;stroke-dasharray:none;stroke-opacity:1"
     id="path22" />
  <path
     d="m 17.353038,14.937785 a 0.33585405,0.47351623 0 0 0 0.123263,-0.134027 0.20892943,0.29456685 0 0 0 0.03135,-0.08396 c 0.0032,-0.01473 0.0036,-0.01547 0.0026,-0.0073 a 0.27160826,0.38293691 0 0 1 -0.02194,0.114145 0.12744696,0.17968579 0 0 1 -0.035,0.0545 0.29929141,0.42196703 0 0 1 -0.04387,0.03314 c -0.01091,0.0073 -0.07417,0.03903 -0.07625,0.03903 a 0.18438023,0.25995525 0 0 1 0.01985,-0.01547 z"
     style="fill:#59a52b;fill-opacity:1;fill-rule:nonzero;stroke:#000000;stroke-width:0.0016602;stroke-dasharray:none;stroke-opacity:1"
     id="path23" />
  <path
     d="m 17.098143,13.622545 0.01881,-0.136974 0.01828,-0.136237 0.04438,-0.179686 0.04439,-0.180422 h 0.0032 l 0.0032,7.37e-4 -0.02038,0.09279 c -0.03761,0.177478 -0.07417,0.364527 -0.103939,0.530219 l -0.0016,0.01032 h -0.0063 z"
     style="fill:#59a52b;fill-opacity:1;fill-rule:nonzero;stroke:#000000;stroke-width:0.000293485;stroke-dasharray:none;stroke-opacity:1"
     id="path24" />
  <path
     d="m 23.135161,18.758317 0.0022,-0.08249 c 0.0041,-0.169375 0.0074,-0.346116 0.0094,-0.553786 0.0016,-0.139919 0.0026,-0.479407 0.0022,-0.551575 l -5.2e-4,-0.06628 h 0.02038 l -5.21e-4,0.119299 a 11.773173,16.598842 0 0 1 -0.0329,1.134818 z"
     style="fill:#59a52b;fill-opacity:1;fill-rule:nonzero;stroke:#000000;stroke-width:0.00117393;stroke-dasharray:none;stroke-opacity:1"
     id="path25" />
  <path
     d="m 23.148741,17.462225 -9.91e-4,-0.15465 a 19.256503,27.149492 0 0 0 -0.02611,-1.266636 l 0.0032,0.04934 a 11.880251,16.749808 0 0 1 0.04335,1.36458 v 0.04787 h -0.01932 z"
     style="fill:#59a52b;fill-opacity:1;fill-rule:nonzero;stroke:#000000;stroke-width:0.000830095;stroke-dasharray:none;stroke-opacity:1"
     id="path26" />
  <path
     d="m 16.97383,17.438658 c 5.23e-4,-0.05893 0.0068,-0.09206 0.02141,-0.113408 a 0.14363898,0.20251472 0 0 1 0.05953,-0.04419 c 0.01566,-0.0066 0.05223,-0.02135 0.05275,-0.02062 l -0.01829,0.01325 a 0.41524726,0.58545164 0 0 0 -0.09924,0.08028 c -0.0058,0.0095 -0.0068,0.01695 -0.01358,0.08544 l -0.0032,0.0302 z m 0.51919,-0.207669 a 0.23504561,0.33138772 0 0 0 -0.01464,-0.113409 0.04178589,0.05891337 0 0 0 -0.01775,-0.02504 0.05066538,0.07143246 0 0 0 -0.02506,-0.0015 0.49150649,0.69296854 0 0 1 0.05485,-0.0162 l 0.0058,-0.0015 v 0.07954 l -0.0016,0.08837 c -5.24e-4,0.0073 -5.24e-4,0.0066 -0.0016,-0.01031 z"
     style="fill:#59a52b;fill-opacity:1;fill-rule:nonzero;stroke:#000000;stroke-width:0.00117393;stroke-dasharray:none;stroke-opacity:1"
     id="path27" />
  <path
     d="m 12.034739,23.550921 a 0.2789208,0.39324675 0 0 0 -0.01254,-0.05377 0.13528181,0.19073205 0 0 0 -0.06269,-0.09868 0.16714355,0.23565349 0 0 1 0.02142,0.01325 0.12379069,0.17453086 0 0 1 0.03656,0.03682 c 0.01201,0.02136 0.01829,0.05081 0.01881,0.09501 v 0.01768 a 0.0574556,0.08100589 0 0 1 -0.0015,-0.01031 z"
     style="fill:#59a52b;fill-opacity:1;fill-rule:nonzero;stroke:#000000;stroke-width:0.000830095;stroke-dasharray:none;stroke-opacity:1"
     id="path28" />
  <path
     d="m 12.444764,21.234889 a 1.7325473,2.4426957 0 0 0 -0.02612,-0.1193 l 0.01358,0.04271 0.0141,0.04419 v 0.01914 c 0,0.01841 0,0.01914 -0.0015,0.01325 z m 0.552618,-0.02725 v -0.0464 l 0.02925,-0.09205 0.02977,-0.09132 c 0,0 -0.0041,0.01768 -0.01046,0.03756 -0.01566,0.05893 -0.02298,0.08469 -0.02769,0.106779 -0.0078,0.03462 -0.01566,0.08101 -0.01985,0.120772 -9.9e-4,0.01031 -9.9e-4,0.0088 -9.9e-4,-0.03536 z"
     style="fill:#59a52b;fill-opacity:1;fill-rule:nonzero;stroke:#000000;stroke-width:0.00117393;stroke-dasharray:none;stroke-opacity:1"
     id="path29" />
  <path
     d="m 13.453369,24.217378 a 0.21467499,0.30266745 0 0 1 -0.03656,-0.108989 0.48419395,0.6826587 0 0 1 -0.0089,-0.17674 c 0,-0.0972 0.0022,-0.14213 0.01035,-0.22829 0.01204,-0.127401 0.03186,-0.224608 0.05015,-0.243017 0.01566,-0.01473 0.08408,-0.03977 0.173933,-0.06112 0.06633,-0.01547 0.114913,-0.03166 0.190125,-0.0626 0.188037,-0.07734 0.43353,-0.209142 0.627833,-0.33728 0.31444,-0.208405 0.653948,-0.531693 0.966299,-0.921994 l 0.03343,-0.04198 5.23e-4,0.488245 v 0.49119 c -9.91e-4,0.0037 -0.05745,0.05892 -0.11125,0.110462 a 5.2206242,7.3604894 0 0 1 -1.500113,0.964708 c -0.143118,0.05744 -0.369805,0.139919 -0.384431,0.139919 -0.0032,0 -0.0068,-0.0044 -0.01154,-0.01252 z"
     style="fill:#59a52b;fill-opacity:1;fill-rule:nonzero;stroke:#000000;stroke-width:0.00234787;stroke-dasharray:none;stroke-opacity:1"
     id="path30" />
  <path
     d="m 15.242851,23.2836 v -0.0044 l 0.01046,-0.0088 c 0.0679,-0.06112 0.160876,-0.148757 0.219377,-0.207669 0.21363,-0.216507 0.48785,-0.583243 0.745878,-0.995637 0.08879,-0.142129 0.178111,-0.296775 0.25228,-0.434486 l 0.01672,-0.03093 h 0.0068 l -0.0016,0.0029 a 4.6178629,6.510664 0 0 1 -0.77565,1.191524 4.3076026,6.0732322 0 0 1 -0.474271,0.491189 z"
     style="fill:#59a52b;fill-opacity:1;fill-rule:nonzero;stroke:#000000;stroke-width:0.000830095;stroke-dasharray:none;stroke-opacity:1"
     id="path31" />
  <path
     d="m 18.779503,30.231698 0.02352,-0.02504 c 0.296158,-0.318132 0.597538,-0.684868 0.888993,-1.078852 0.313397,-0.424175 0.64037,-0.916839 0.919291,-1.385937 l 0.02716,-0.04566 h 0.01409 l -0.0084,0.01474 -0.02612,0.04419 a 10.994388,15.500845 0 0 1 -0.807511,1.237181 10.642866,15.005235 0 0 1 -0.987192,1.20036 c -0.03447,0.03682 -0.03761,0.03977 -0.04075,0.03977 h -0.0032 z M 12.517888,33.1538 a 5.4875317,7.7367985 0 0 1 -0.38234,-0.02578 c -0.0423,-0.0051 -0.04492,-0.0051 -0.02351,-0.0051 l 0.143117,0.0022 a 20.558656,28.985379 0 0 0 0.798105,-0.01325 h 0.0068 v 0.02062 l -0.0063,7.35e-4 a 7.0372655,9.9217483 0 0 1 -0.535903,0.02062 z"
     style="fill:#59a52b;fill-opacity:1;fill-rule:nonzero;stroke:#000000;stroke-width:0.00117393;stroke-dasharray:none;stroke-opacity:1"
     id="path32" />
  <path
     d="m 12.288066,32.312075 a 9.894376,13.949951 0 0 1 -0.394877,-0.02946 l -0.03604,-0.0037 a 5.447835,7.6808308 0 0 1 -0.082,-0.0081 l -0.01046,-0.0015 h 0.0088 l 0.02194,0.0015 0.08879,0.0022 c 0.07417,7.36e-4 0.101857,0.0029 0.213107,0.01914 a 1.9587134,2.7615643 0 0 0 0.222509,0.01914 h 0.0052 l -0.0094,7.37e-4 z"
     style="fill:#59a52b;fill-opacity:1;fill-rule:nonzero;stroke:#000000;stroke-width:0.000586963;stroke-dasharray:none;stroke-opacity:1"
     id="path33" />
  <path
     d="m 12.98328,31.113924 5.22e-4,-0.89622 5.21e-4,-0.06407 h 0.0099 v 1.793176 h -0.01046 z m -0.529115,0.816688 c -9.91e-4,-0.01473 -9.91e-4,-0.12961 -9.91e-4,-0.896957 v -0.880018 h 0.0073 v 0.653202 a 56.498176,79.656034 0 0 1 -0.0052,1.121563 v 0.01841 z"
     style="fill:#59a52b;fill-opacity:1;fill-rule:nonzero;stroke:#000000;stroke-width:0.000830095;stroke-dasharray:none;stroke-opacity:1"
     id="path34" />
  <path
     d="m 12.98328,32.137545 v -0.188523 h 0.01046 v 0.361581 h 0.02089 l 0.176023,-0.0029 c 0.02455,-7.36e-4 0.01775,0 -0.07835,0.0073 l -0.117006,0.01031 -0.01204,7.37e-4 z"
     style="fill:#59a52b;fill-opacity:1;fill-rule:nonzero;stroke:#000000;stroke-width:0.00117393;stroke-dasharray:none;stroke-opacity:1"
     id="path35" />
  <path
     d="m 13.061105,33.122134 v -0.01031 l 0.01775,-7.37e-4 0.06165,-0.0037 c 0.133716,-0.0088 0.288845,-0.0221 0.417337,-0.03682 0.04439,-0.0059 0.04439,-0.0044 -9.91e-4,0.0022 a 12.379069,17.453086 0 0 1 -0.480537,0.05818 l -0.01566,0.0015 z m 1.208657,-0.169375 a 9.5564327,13.473489 0 0 0 1.021142,-0.299722 c 9.9e-4,7.36e-4 -0.01409,0.0073 -0.09663,0.03977 a 5.2336823,7.3788997 0 0 1 -0.7417,0.231971 l -0.21572,0.03682 a 0.42934998,0.6053349 0 0 1 0.0329,-0.0088 z M 4.3894887,8.0780601 A 11.456645,16.152574 0 0 1 5.8676645,5.7310985 10.759866,15.170193 0 0 1 6.6840562,4.7619736 c 0.065812,-0.06996 0.060068,-0.064068 0.060589,-0.060386 v 0.00589 c 0,0.00147 -0.015669,0.017674 -0.033428,0.036821 C 6.4829617,4.9843715 6.2442598,5.2583188 6.0792055,5.4696704 5.6874629,5.971907 5.139023,6.7812294 4.7577268,7.4197032 4.6266236,7.6406283 4.5352169,7.8063222 4.3952343,8.0795329 c -0.015669,0.03093 -0.017759,0.034612 -0.020892,0.034612 -0.00314,0 -0.00262,-0.00147 0.015146,-0.036085 z"
     style="fill:#59a52b;fill-opacity:1;fill-rule:nonzero;stroke:#000000;stroke-width:0.0016602;stroke-dasharray:none;stroke-opacity:1"
     id="path36" />
  <path
     d="m 8.2646073,13.18143 a 7.7476259,10.923275 0 0 0 -0.3201841,-1.265164 2.1880136,3.0848513 0 0 1 0.1034191,0.323287 c 0.080439,0.29825 0.1551299,0.615644 0.2141523,0.908003 0.013579,0.06776 0.01254,0.06039 0.010451,0.06039 -0.00215,0 -0.00265,-0.0029 -0.00784,-0.02651 z M 10.280776,11.439068 A 6.288776,8.8664624 0 0 0 10.121467,11.318295 5.2451734,7.3951011 0 0 0 9.2721693,10.817531 5.8886762,8.302367 0 0 0 8.5163669,10.565678 l 0.099764,0.02062 c 0.5557523,0.127399 1.1109821,0.407237 1.6578551,0.835833 l 0.01933,0.01473 v 0.0059 l -5.23e-4,0.0051 z"
     style="fill:#59a52b;fill-opacity:1;fill-rule:nonzero;stroke:#000000;stroke-width:0.00117393;stroke-dasharray:none;stroke-opacity:1"
     id="path37" />
  <path
     d="m 10.85481,11.180585 c 0.01045,-0.0029 0.02402,-0.01989 0.08357,-0.102362 0.0397,-0.05523 0.04648,-0.06407 0.04648,-0.06333 0,0.0015 -0.02977,0.06333 -0.03918,0.081 -0.03029,0.05966 -0.0585,0.08764 -0.0888,0.0869 h -0.0089 z m -0.393309,-0.315186 a 0.97831205,1.3793093 0 0 1 -0.07103,-0.06333 l 0.0073,-0.02284 c 0.02089,-0.0626 0.04544,-0.111199 0.09924,-0.195887 0.02402,-0.03755 0.02717,-0.04198 0.02717,-0.03903 a 0.4230821,0.59649789 0 0 0 -0.103942,0.228288 0.05066538,0.07143246 0 0 0 0,0.03682 c 0.0026,0.01105 0.01724,0.02798 0.0491,0.05817 0.01515,0.01473 0.01723,0.0162 0.01567,0.0162 a 0.31078253,0.4381682 0 0 1 -0.02351,-0.01841 z"
     style="fill:#59a52b;fill-opacity:1;fill-rule:nonzero;stroke:#000000;stroke-width:0.0016602;stroke-dasharray:none;stroke-opacity:1"
     id="path38" />
  <path
     d="m 10.845408,11.182058 a 0.12692463,0.17894937 0 0 1 -0.04387,-0.02946 0.5782122,0.81521378 0 0 1 -0.02402,-0.0243 1.4912338,2.102471 0 0 0 0.07208,0.05155 c 0.0021,7.36e-4 0.0021,7.36e-4 5.22e-4,0.0015 h -0.0021 v 0.0015 h -0.0026 z"
     style="fill:#59a52b;fill-opacity:1;fill-rule:nonzero;stroke:#000000;stroke-width:0.000207524;stroke-dasharray:none;stroke-opacity:1"
     id="path39" />
  <path
     d="m 11.071574,12.165912 -0.04701,-0.04935 a 6.924966,9.7634185 0 0 0 -0.731251,-0.668658 v -0.0059 l 5.22e-4,-0.0044 0.05536,0.04419 a 6.7400635,9.5027269 0 0 1 0.726029,0.681187 l 0.0052,0.0059 h -0.0026 c -0.0036,0 -0.0036,0 -0.0058,-0.0022 z"
     style="fill:#59a52b;fill-opacity:1;fill-rule:nonzero;stroke:#000000;stroke-width:0.000586963;stroke-dasharray:none;stroke-opacity:1"
     id="path40" />
  <path
     d="m 12.41917,8.2216614 a 1.9054365,2.6864497 0 0 1 0.171845,-0.1642211 0.30712626,0.43301329 0 0 1 0.108646,-0.054495 0.16714355,0.23565349 0 0 1 0.02403,-7.364e-4 0.20788478,0.29309403 0 0 1 0.09245,0.050812 c 0.01154,0.00958 0.02298,0.02062 0.04807,0.044922 a 0.96055307,1.3542711 0 0 0 0.06164,0.058913 1.7706769,2.4964541 0 0 0 -0.112818,-0.085424 c -0.05536,-0.038295 -0.09559,-0.055969 -0.118561,-0.053022 a 0.27004128,0.38072766 0 0 0 -0.08879,0.045658 2.0866828,2.9419865 0 0 0 -0.177591,0.1502291 z"
     style="fill:#59a52b;fill-opacity:1;fill-rule:nonzero;stroke:#000000;stroke-width:0.000415049;stroke-dasharray:none;stroke-opacity:1"
     id="path41" />
  <path
     d="m 11.142088,9.6252724 v -0.00368 L 11.152548,9.6076004 11.290441,9.44117 C 11.46438,9.2320255 11.568845,9.1083073 11.66652,8.9971084 a 7.2738782,10.255346 0 0 1 0.557841,-0.5869245 l -0.02089,0.021356 a 13.616976,19.198395 0 0 0 -1.060317,1.1974145 c -9.92e-4,0 -9.92e-4,0 -9.92e-4,-0.00368 z"
     style="fill:#59a52b;fill-opacity:1;fill-rule:nonzero;stroke:#000000;stroke-width:0.000830095;stroke-dasharray:none;stroke-opacity:1"
     id="path42" />
  <path
     d="m 10.798921,10.091424 0.04492,-0.06628 c 0.08619,-0.1274007 0.177592,-0.2518552 0.272655,-0.3726277 l 0.0068,-0.00736 h 0.0073 l -0.0063,0.00736 a 5.2054769,7.3391334 0 0 0 -0.310678,0.4263867 l -0.0094,0.01399 h -0.0058 z m -0.273697,0.826997 a 2.4878273,3.5075549 0 0 1 -0.04282,-0.03462 h 9.9e-4 c 9.91e-4,0.0015 0.0016,0.0015 0.0021,0 v -0.0022 l 0.0026,0.0022 a 2.5311801,3.5686774 0 0 0 0.03656,0.03462 z m -0.0036,-0.374099 0.0036,-0.0059 a 1.7701547,2.4957178 0 0 0 0.02821,-0.04419 l -0.02142,0.0383 -0.0073,0.01252 v -0.0015 c 0,-0.0015 -9.91e-4,-0.0015 -0.0026,0 z"
     style="fill:#59a52b;fill-opacity:1;fill-rule:nonzero;stroke:#000000;stroke-width:0.000207524;stroke-dasharray:none;stroke-opacity:1"
     id="path43" />
  <path
     d="m 10.589469,10.431649 0.0021,-0.0037 0.02821,-0.04861 c 0.05066,-0.0869 0.102898,-0.170849 0.158786,-0.256272 l 0.0053,-0.0081 h 0.0058 l -0.0084,0.01179 a 5.6306483,7.9385769 0 0 0 -0.191693,0.30414 z m 0.195872,-0.318868 0.0068,-0.01031 0.0063,-0.0095 h 0.0058 l -0.0073,0.01105 -0.0073,0.01031 h -0.0053 z"
     style="fill:#59a52b;fill-opacity:1;fill-rule:nonzero;stroke:#000000;stroke-width:0.000146741;stroke-dasharray:none;stroke-opacity:1"
     id="path44" />
  <path
     d="m 10.977557,11.022255 0.0084,-0.01105 0.0084,-0.01252 a 0.00522324,0.00736418 0 0 1 9.91e-4,-7.37e-4 l -0.0015,0.0029 a 0.50665387,0.71432464 0 0 0 -0.0099,0.01914 l 5.22e-4,-0.0022 c 0.0015,-0.0022 0.0015,-0.0029 9.9e-4,-0.0037 -5.22e-4,-7.37e-4 -0.0015,0 -0.0063,0.0066 z"
     style="fill:#59a52b;fill-opacity:1;fill-rule:nonzero;stroke:#000000;stroke-width:0.000131267;stroke-dasharray:none;stroke-opacity:1"
     id="path45" />
  <path
     d="m 12.134503,9.4875626 0.03396,-0.039031 a 6.9944351,9.861362 0 0 1 0.269519,-0.2930941 l -0.03239,0.038295 a 1.749784,2.4669976 0 0 1 -0.09976,0.1134079 11.41277,16.090713 0 0 0 -0.171324,0.1804223 z"
     style="fill:#59a52b;fill-opacity:1;fill-rule:nonzero;stroke:#000000;stroke-width:0.000262533;stroke-dasharray:none;stroke-opacity:1"
     id="path46" />
  <path
     d="m 14.573232,11.176903 a 0.0840941,0.11856316 0 0 1 -0.03813,-0.02357 0.29929141,0.42196703 0 0 1 -0.05798,-0.08322 7.613911,10.734753 0 0 0 -0.08201,-0.12519 c 0.08462,0.116353 0.14625,0.195886 0.1708,0.220188 0.0058,0.0059 0.01046,0.0088 0.01409,0.01031 a 0.02037062,0.02872026 0 0 0 0.0094,0 1.8155968,2.5597859 0 0 0 0.07313,-0.05155 0.24288046,0.34243398 0 0 1 -0.06373,0.05008 0.06685742,0.0942614 0 0 1 -0.02559,0.0029 z m 0.328019,-0.248172 0.0078,-0.0073 c 0.0397,-0.03682 0.06896,-0.06702 0.08722,-0.09058 a 0.14677293,0.20693321 0 0 0 0.01724,-0.02578 0.02977244,0.04197578 0 0 0 0.0063,-0.02799 0.19325973,0.27247435 0 0 0 -0.01932,-0.08542 0.48314932,0.68118586 0 0 0 -0.03655,-0.09353 0.91511092,1.2902028 0 0 0 -0.06007,-0.103098 5.9033011,8.3229866 0 0 0 -0.168189,-0.250383 l 0.06059,0.07954 c 0.06373,0.08543 0.108647,0.151703 0.143117,0.213561 a 0.49672973,0.7003327 0 0 1 0.08043,0.187028 c 0.0063,0.0243 0.0084,0.03682 0.0078,0.05155 a 0.07103601,0.10015274 0 0 1 -0.01983,0.06112 0.10707633,0.15096552 0 0 1 -0.02038,0.02357 c -0.02089,0.02062 -0.04178,0.03903 -0.06842,0.05893 l -0.01091,0.0088 h -0.0063 z"
     style="fill:#59a52b;fill-opacity:1;fill-rule:nonzero;stroke:#000000;stroke-width:0.000371278;stroke-dasharray:none;stroke-opacity:1"
     id="path47" />
  <path
     d="m 14.596736,11.920684 v -0.0037 l 0.0068,-0.0059 c 0.0747,-0.07364 0.144162,-0.139919 0.215198,-0.203249 l 0.0094,-0.0088 9.91e-4,-7.36e-4 v 0.0066 a 7.2916373,10.280383 0 0 0 -0.225122,0.21356 l -0.0068,0.0059 v -0.0037 z"
     style="fill:#59a52b;fill-opacity:1;fill-rule:nonzero;stroke:#000000;stroke-width:0.000131267;stroke-dasharray:none;stroke-opacity:1"
     id="path48" />
  <path
     d="m 14.124034,12.424394 v -0.0022 l 0.0048,-0.0051 0.01829,-0.02136 a 7.9575998,11.219315 0 0 1 0.449197,-0.477936 v 0.0066 l -0.02089,0.02136 a 8.5995352,12.124372 0 0 0 -0.450765,0.480882 v -0.0022 z"
     style="fill:#59a52b;fill-opacity:1;fill-rule:nonzero;stroke:#000000;stroke-width:0.00052507;stroke-dasharray:none;stroke-opacity:1"
     id="path49" />
  <path
     d="m 13.732813,12.90012 a 10.030703,14.142155 0 0 1 0.251237,-0.313715 l 0.0016,-0.0015 v 0.0044 l -0.0036,0.0044 a 6.6267193,9.3429244 0 0 0 -0.235567,0.300457 l -0.0048,0.0059 z"
     style="fill:#59a52b;fill-opacity:1;fill-rule:nonzero;stroke:#000000;stroke-width:0.00018564;stroke-dasharray:none;stroke-opacity:1"
     id="path50" />
  <path
     d="m 13.98614,12.586405 v -0.0022 l 0.0016,-0.0015 a 8.835626,12.457232 0 0 1 0.135805,-0.159803 v -7.36e-4 0.0022 l 5.22e-4,0.0022 a 38.178721,53.827674 0 0 0 -0.12014,0.139919 l -0.01775,0.02209 z"
     style="fill:#59a52b;fill-opacity:1;fill-rule:nonzero;stroke:#000000;stroke-width:0.000131267;stroke-dasharray:none;stroke-opacity:1"
     id="path51" />
  <path
     d="m 13.411583,13.343443 0.05485,-0.08249 c 0.03918,-0.05744 0.07207,-0.103098 0.109682,-0.153176 0.02977,-0.04125 0.06738,-0.09131 0.108647,-0.145073 l 0.0022,-0.0029 v 0.01473 l -0.0016,0.0022 -0.0089,0.01179 a 8.1545154,11.496945 0 0 0 -0.230867,0.329915 l -0.01932,0.02872 h -0.01724 z"
     style="fill:#59a52b;fill-opacity:1;fill-rule:nonzero;stroke:#000000;stroke-width:0.00018564;stroke-dasharray:none;stroke-opacity:1"
     id="path52" />
  <path
     d="m 13.686848,12.967134 v -0.0073 l 0.0068,-0.0088 0.035,-0.04566 0.0036,-0.0044 h 0.0052 a 0.04700911,0.06627754 0 0 1 0.0041,0 c -0.01204,0.01473 -0.05015,0.06702 -0.05432,0.07364 z"
     style="fill:#59a52b;fill-opacity:1;fill-rule:nonzero;stroke:#000000;stroke-width:0.000131267;stroke-dasharray:none;stroke-opacity:1"
     id="path53" />
  <path
     d="m 13.153556,13.768356 a 5.4843975,7.7323801 0 0 1 0.235045,-0.390303 l 0.0052,-0.0073 h 0.01724 l -0.0032,0.0044 a 7.7121077,10.873199 0 0 0 -0.248626,0.393246 l -0.0022,0.0029 h -0.0058 z"
     style="fill:#59a52b;fill-opacity:1;fill-rule:nonzero;stroke:#000000;stroke-width:0.00018564;stroke-dasharray:none;stroke-opacity:1"
     id="path54" />
  <path
     d="m 12.761292,14.550431 0.0032,-0.01031 a 0.90100817,1.2703196 0 0 1 0.07417,-0.187785 l 9.9e-4,-0.0022 h 0.0074 l -0.0036,0.0088 a 1.4990686,2.1135173 0 0 0 -0.0423,0.100888 0.71923958,1.0140465 0 0 1 -0.0397,0.09059 z"
     style="fill:#59a52b;fill-opacity:1;fill-rule:nonzero;stroke:#000000;stroke-width:0.000131267;stroke-dasharray:none;stroke-opacity:1"
     id="path55" />
  <path
     d="m 12.843296,14.350125 h -0.0036 l 0.01409,-0.02946 c 0.02716,-0.05598 0.05745,-0.113408 0.106554,-0.202515 l 0.0026,-0.0044 h 9.91e-4 -5.23e-4 l -0.0036,0.0073 a 2.7808507,3.9206849 0 0 0 -0.112818,0.229026 z"
     style="fill:#59a52b;fill-opacity:1;fill-rule:nonzero;stroke:#000000;stroke-width:0.000131267;stroke-dasharray:none;stroke-opacity:1"
     id="path56" />
  <path
     d="m 12.585267,14.376635 a 7.6055536,10.722969 0 0 0 -0.202138,-0.39251 h 0.0058 l 0.0026,0.0044 0.06895,0.132555 0.0585,0.108989 a 2.2924782,3.2321349 0 0 1 0.08148,0.154649 h -0.01091 z m 0.08044,0.183368 -0.0041,-0.01179 a 1.4588497,2.056813 0 0 0 -0.07052,-0.159066 l -0.0016,-0.0044 h 0.01035 l 9.9e-4,0.0015 0.0032,0.0066 a 0.57560059,0.8115317 0 0 1 0.06164,0.167167 z m 0.03656,0.06039 a 0.02559387,0.03608444 0 0 1 -0.01154,-0.0073 l -9.91e-4,-0.0015 h 0.03239 l -0.0022,0.0015 a 0.03551801,0.05007636 0 0 1 -0.01154,0.0073 0.02454921,0.0346116 0 0 1 -0.0068,0 z m -0.01724,-0.01547 a 0.03395104,0.04786712 0 0 1 -0.0052,-0.0095 c 0,0 0.0022,0 0.0036,-0.0015 l 0.0026,-7.36e-4 v 0.01325 z"
     style="fill:#59a52b;fill-opacity:1;fill-rule:nonzero;stroke:#000000;stroke-width:0.00018564;stroke-dasharray:none;stroke-opacity:1"
     id="path57" />
  <path
     d="m 12.327762,13.883236 c -0.0491,-0.08837 -0.103939,-0.182631 -0.158263,-0.271737 l -0.0041,-0.0073 h 0.01046 l 0.0041,0.0073 c 0.05223,0.08763 0.100812,0.173057 0.151475,0.265847 l 0.0052,0.01031 h -0.0063 z"
     style="fill:#59a52b;fill-opacity:1;fill-rule:nonzero;stroke:#000000;stroke-width:0.000131267;stroke-dasharray:none;stroke-opacity:1"
     id="path58" />
  <path
     d="M 12.156963,13.590879 A 6.7604341,9.5314471 0 0 0 11.63934,12.836051 l -9.91e-4,-0.0015 h 0.0073 l 0.01201,0.01473 c 0.02559,0.03387 0.04701,0.06112 0.07626,0.100888 a 5.0973559,7.186695 0 0 1 0.439795,0.651729 l 9.91e-4,0.0015 h -0.0094 z"
     style="fill:#59a52b;fill-opacity:1;fill-rule:nonzero;stroke:#000000;stroke-width:0.00052507;stroke-dasharray:none;stroke-opacity:1"
     id="path59" />
  <path
     d="m 11.465407,12.615862 c -0.08305,-0.102362 -0.18438,-0.220924 -0.274221,-0.319606 l -0.0063,-0.0073 h 0.0063 l 0.01672,0.01914 c 0.08879,0.09868 0.174457,0.198834 0.261162,0.304878 l 0.0052,0.0059 v 0.0037 l -5.22e-4,0.0037 -0.0078,-0.01031 z"
     style="fill:#59a52b;fill-opacity:1;fill-rule:nonzero;stroke:#000000;stroke-width:0.00018564;stroke-dasharray:none;stroke-opacity:1"
     id="path60" />
  <path
     d="m 11.626804,12.819113 a 7.1594893,10.094071 0 0 0 -0.148862,-0.188521 l -0.0041,-0.0044 v -0.0073 l 0.02089,0.02578 c 0.04387,0.05377 0.08671,0.106778 0.130582,0.163483 l 0.0068,0.0088 v 0.0044 h -0.0036 z"
     style="fill:#59a52b;fill-opacity:1;fill-rule:nonzero;stroke:#000000;stroke-width:0.00018564;stroke-dasharray:none;stroke-opacity:1"
     id="path61" />
  <path
     d="m 11.633072,12.827951 -0.0047,-0.0059 h 0.0036 v -0.0029 a 0.0156697,0.02209251 0 0 1 0,-0.0022 l 0.01254,0.01547 9.91e-4,0.0015 h -0.0078 z"
     style="fill:#59a52b;fill-opacity:1;fill-rule:nonzero;stroke:#000000;stroke-width:0.000131267;stroke-dasharray:none;stroke-opacity:1"
     id="path62" />
  <path
     d="m 11.182829,12.287421 a 7.241494,10.209687 0 0 0 -0.108647,-0.117827 h 0.0073 l 0.0026,0.0029 c 0.02872,0.0302 0.0679,0.07364 0.10238,0.111935 l 0.0047,0.0044 h -0.0068 z"
     style="fill:#59a52b;fill-opacity:1;fill-rule:nonzero;stroke:#000000;stroke-width:0.00018564;stroke-dasharray:none;stroke-opacity:1"
     id="path63" />
  <path
     d="M 7.108183,11.282211 A 1.1616476,1.6377918 0 0 1 7.037147,11.083379 C 6.990139,10.921367 6.984915,10.787339 7.021478,10.666566 a 0.3123495,0.44037746 0 0 1 0.060068,-0.130346 0.23086702,0.32549638 0 0 1 0.0585,-0.0626 0.34525588,0.48677174 0 0 1 0.1593087,-0.05155 c 0.016191,-7.36e-4 0.069468,0 0.1023751,0.0015 l 0.073126,0.0015 0.083571,0.0015 h 0.00525 v 0.0081 h -0.00731 a 6.2412445,8.7994485 0 0 0 -0.2251214,0 c -0.098197,0.0066 -0.1577416,0.02284 -0.2016168,0.05523 a 0.17236678,0.24301767 0 0 0 -0.047008,0.05082 0.36040328,0.50812783 0 0 0 -0.078871,0.301929 c 0,0.02504 0,0.03314 0.00209,0.0545 0.00835,0.100145 0.040218,0.213562 0.1034212,0.371891 l 0.00627,0.01473 h -0.00627 z"
     style="fill:#59a52b;fill-opacity:1;fill-rule:nonzero;stroke:#000000;stroke-width:0.00052507;stroke-dasharray:none;stroke-opacity:1"
     id="path64" />
  <path
     d="m 7.2058575,11.503137 a 3.7210332,5.2462358 0 0 1 -0.094019,-0.212089 l -0.00209,-0.0066 h 0.00574 l 0.00105,0.0015 0.039697,0.09426 a 2.5301354,3.5672047 0 0 1 0.049621,0.122244 z"
     style="fill:#59a52b;fill-opacity:1;fill-rule:nonzero;stroke:#000000;stroke-width:0.00018564;stroke-dasharray:none;stroke-opacity:1"
     id="path65" />
  <path
     d="M 5.713579,14.02242 A 3.0550706,4.3073038 0 0 0 5.5929227,13.910484 l -0.00262,-0.0022 v -0.01768 c 0.00157,0 0.037085,0.03682 0.057456,0.05744 a 3.517327,4.959033 0 0 1 0.06529,0.07438 z"
     style="fill:#59a52b;fill-opacity:1;fill-rule:nonzero;stroke:#000000;stroke-width:0.00052507;stroke-dasharray:none;stroke-opacity:1"
     id="path66" />
  <path
     d="m 4.8768165,14.64911 0.00835,-0.03609 a 2.6899664,3.7925483 0 0 1 0.074169,-0.296777 h 0.010451 l -0.00157,0.0044 a 3.0106732,4.2447085 0 0 0 -0.085135,0.329177 h -0.00627 z"
     style="fill:#59a52b;fill-opacity:1;fill-rule:nonzero;stroke:#000000;stroke-width:0.00018564;stroke-dasharray:none;stroke-opacity:1"
     id="path67" />
  <path
     d="m 4.7827983,15.089489 0.00366,-0.01695 c 0.012013,-0.05893 0.022981,-0.111199 0.037085,-0.174531 a 7.8740279,11.101489 0 0 0 0.050143,-0.231972 l 0.00314,-0.01473 v -7.36e-4 h 0.00574 l -5.222e-4,0.0029 -0.00417,0.01841 a 7.10569,10.01822 0 0 0 -0.088795,0.412394 l -0.00105,0.0066 H 4.78281 Z m 3.1616249,1.56783 0.00365,-0.157592 0.00102,-0.02578 a 24.234248,34.167547 0 0 0 0.00153,0.182631 v 0.0015 h -0.00629 z"
     style="fill:#59a52b;fill-opacity:1;fill-rule:nonzero;stroke:#000000;stroke-width:0.000262533;stroke-dasharray:none;stroke-opacity:1"
     id="path68" />
  <path
     d="m 7.9872538,18.348869 -0.00102,-0.01252 -0.00416,-0.03903 c 0,-0.0059 -0.00102,-0.01031 -0.00102,-0.01031 h 0.00211 l 5.221e-4,-0.0015 v 0.0081 l 0.00365,0.05008 v 0.0088 z"
     style="fill:#59a52b;fill-opacity:1;fill-rule:nonzero;stroke:#000000;stroke-width:0.000131267;stroke-dasharray:none;stroke-opacity:1"
     id="path69" />
  <path
     d="m 12.452598,29.726516 v -0.139921 l 0.0041,-0.117825 5.22e-4,-0.01326 h 0.0032 v 0.40061 h -0.0078 z m 0.0073,-0.59429 a 0.42621605,0.60091638 0 0 0 -0.01881,-0.1274 l -9.9e-4,-0.0051 0.01046,0.02946 0.0099,0.03093 v 0.07807 z m 0.523891,0.987537 5.22e-4,-0.319608 v -0.0029 h 0.0036 v 0.0015 a 4.6904657,6.613026 0 0 1 0.0052,0.167901 c 5.23e-4,0.01989 9.91e-4,0.03609 9.91e-4,0.108989 v 0.07734 h -0.01046 v 0.02578 z M 12.45263,30.004881 v -0.148757 h 0.0078 v 0.296777 h -0.0078 z"
     style="fill:#59a52b;fill-opacity:1;fill-rule:nonzero;stroke:#000000;stroke-width:0.00018564;stroke-dasharray:none;stroke-opacity:1"
     id="path70" />
</svg>
